{
.appVersion = "3151";
.formatVersion = 3;
DisplayStrings = (
"ÁÁĂĂÂÂÄÄÀÀĀĀĄĄÅÅǺǺÃÃǼǼĆĆČČÇÇĈĈĊĊÐÐĎĎĐĐÉÉĔĔĚĚÊÊËËĖĖÈÈĒĒĘĘĞĞĜĜĠĠĦĦĤĤÍÍĬĬÎÎÏÏİİÌÌĪĪĮĮĨĨĴĴĹĹĽĽŁŁŃŃŇŇÑÑÓÓŎŎÔÔÖÖÒÒŐŐŌŌǾǾÕÕŔŔŘŘŚŚŠŠŞŞŜŜŦŦŤŤÚÚŬŬÛÛÜÜÙÙŰŰŪŪŲŲŮŮŨŨẂẂŴŴẄẄẀẀÝÝŶŶŸŸỲỲŹŹŽŽŻŻŢŢááăăââääààāāąąååǻǻããǽǽććččççĉĉċċďđđééĕĕěěêêëëėėèèēēęęğğĝĝġġħħĥĥííĭĭîîïïììīīįįĩĩĵĵĺĺľłłńńŉŉňňññóóŏŏôôööòòőőōōøǿǿõõŕŕřřśśššşşŝŝŧŧťťúúŭŭûûüüùùűűūūţţųųůůũũẃẃŵŵẅẅẁẁýýŷŷÿÿỳỳźźžžżżﬁﬁﬂﬂ½½¼¼¾¾₣₣%%‰‰/fj/fj/ringacute.case"
);
customParameters = (
{
name = descriptions;
value = "";
},
{
name = licenses;
value = "This Font Software is licensed under the SIL Open Font License, Version 1.1. This license is available with a FAQ at: http://scripts.sil.org/OFL";
},
{
name = licenseURL;
value = "http://scripts.sil.org/OFL";
},
{
name = sampleTexts;
value = "";
},
{
name = uniqueID;
value = "EduardoRodriguezTunni: Kite One: 2012";
},
{
name = versionString;
value = "Version 2.001";
},
{
name = codePageRanges;
value = (
"1252",
"1250",
"1254",
"1257",
"bit 29"
);
},
{
name = openTypeOS2FamilyClass;
value = (
0,
0
);
},
{
name = panose;
value = (
2,
0,
5,
3,
4,
0,
0,
2,
0,
3
);
},
{
name = openTypeOS2SubscriptXOffset;
value = 0;
},
{
name = openTypeOS2SubscriptXSize;
value = 650;
},
{
name = openTypeOS2SubscriptYOffset;
value = 75;
},
{
name = openTypeOS2SubscriptYSize;
value = 600;
},
{
name = openTypeOS2SuperscriptXOffset;
value = 0;
},
{
name = openTypeOS2SuperscriptXSize;
value = 650;
},
{
name = openTypeOS2SuperscriptYOffset;
value = 350;
},
{
name = openTypeOS2SuperscriptYSize;
value = 600;
},
{
name = unicodeRanges;
value = (
0,
1,
2,
3,
5,
7,
29,
31,
32,
33,
35,
38,
45,
62
);
},
{
name = vendorID;
value = TIPO;
},
{
name = trademarks;
value = "Kite One is a trademark of Eduardo Rodriguez Tunni.";
},
{
name = year;
value = 2012;
}
);
date = "2023-02-16 15:56:20 +0000";
familyName = "Kite One";
featurePrefixes = (
{
code = "languagesystem DFLT dflt;
languagesystem latn dflt; # Latin default
";
name = Languagesystems;
},
{
code = "#

glyphs = (
{
glyphname = A;
layers = (
{
layerId = master01;
shapes = (
{
closed = 1;
nodes = (
(497,286,l),
(182,286,l),
(402,759,l,{
name = hr00;
})
);
},
{
closed = 1;
nodes = (
(-7,64,o),
(-21,25,o),
(-21,20,cs),
(-21,-7,o),
(7,-14,o),
(25,-14,cs),
(48,-14,o),
(60,21,o),
(87,80,cs),
(153,225,l),
(510,225,l),
(554,15,ls),
(559,-8,o),
(573,-14,o),
(598,-14,cs),
(620,-14,o),
(636,-9,o),
(636,8,cs),
(636,11,o),
(635,16,o),
(634,20,cs),
(463,843,ls),
(458,867,o),
(438,872,o),
(413,872,cs),
(388,872,o),
(367,865,o),
(357,843,cs),
(28,139,ls)
);
}
);
width = 700;
}
);
unicode = 65;
},
{
glyphname = AE;
layers = (
{
layerId = master01;
shapes = (
{
closed = 1;
nodes = (
(411,13,o),
(422,0,o),
(446,0,cs),
(850,0,ls),
(866,0,o),
(878,13,o),
(878,34,cs),
(878,55,o),
(868,64,o),
(852,64,cs),
(495,64,l),
(535,388,l),
(818,388,ls),
(846,388,o),
(856,398,o),
(856,425,cs),
(856,444,o),
(842,451,o),
(821,451,cs),
(544,451,l),
(581,797,l),
(917,797,ls),
(945,797,o),
(954,806,o),
(954,833,cs),
(954,851,o),
(941,860,o),
(923,860,cs),
(537,860,l),
(533,860,l),
(412,860,ls),
(387,860,o),
(366,853,o),
(356,831,c),
(-26,82,ls),
(-49,38,o),
(-51,25,o),
(-51,15,cs),
(-51,-7,o),
(-31,-14,o),
(-5,-14,cs,{
name = hr01;
}),
(18,-14,o),
(33,22,o),
(62,80,cs),
(217,388,l),
(456,388,l),
(413,31,ls)
);
},
{
closed = 1;
nodes = (
(505,797,l),
(463,451,l),
(249,451,l),
(424,797,l)
);
}
);
width = 954;
}
);
unicode = 198;
},
{
glyphname = B;
layers = (
{
layerId = master01;
shapes = (
{
closed = 1;
nodes = (
(644,813,o),
(519,872,o),
(381,872,cs),
(252,872,o),
(183,857,o),
(183,857,c),
(183,857,o),
(155,851,o),
(154,837,cs),
(57,32,l),
(57,27,ls),
(57,7,o),
(73,-1,o),
(95,-3,c),
(95,-3,o),
(168,-14,o),
(301,-14,cs),
(494,-14,o),
(654,71,o),
(654,252,cs),
(654,354,o),
(587,428,o),
(489,470,c),
(585,511,o),
(645,585,o),
(645,683,cs,{
name = hr00;
})
);
},
{
closed = 1;
nodes = (
(468,440,o),
(574,351,o),
(574,251,cs),
(574,123,o),
(434,55,o),
(301,55,cs),
(251,55,o),
(190,57,o),
(140,62,c),
(185,440,l),
(337,440,ls)
);
},
{
closed = 1;
nodes = (
(279,808,o),
(332,811,o),
(381,811,cs),
(476,811,o),
(566,770,o),
(566,680,cs),
(566,582,o),
(482,517,o),
(377,503,c),
(193,503,l),
(228,799,l)
);
}
);
width = 713;
}
);
unicode = 66;
},
{
glyphname = C;
layers = (
{
layerId = master01;
shapes = (
{
closed = 1;
nodes = (
(139,872,o),
(42,567,o),
(42,330,cs),
(42,137,o),
(120,-14,o),
(333,-14,cs),
(447,-14,o),
(547,36,o),
(609,133,cs),
(613,139,o),
(616,146,o),
(616,151,cs),
(616,169,o),
(599,181,o),
(584,181,cs),
(567,181,o),
(552,153,o),
(539,139,cs),
(486,81,o),
(417,53,o),
(340,53,cs),
(182,53,o),
(122,185,o),
(122,325,cs),
(122,501,o),
(197,811,o),
(421,811,cs),
(570,811,o),
(588,708,o),
(616,708,cs),
(633,708,o),
(662,728,o),
(662,741,cs),
(662,763,o),
(592,872,o),
(424,872,cs,{
name = hr00;
})
);
}
);
width = 661;
}
);
unicode = 67;
},
{
glyphname = D;
layers = (
{
layerId = master01;
shapes = (
{
closed = 1;
nodes = (
(731,746,o),
(624,872,o),
(399,872,cs),
(297,872,o),
(183,861,o),
(183,861,c),
(171,860,o),
(155,851,o),
(154,837,cs),
(57,29,ls),
(55,8,o),
(71,-1,o),
(95,-3,c),
(95,-3,o),
(164,-14,o),
(301,-14,cs),
(617,-14,o),
(735,241,o),
(732,536,cs,{
name = hr00;
})
);
},
{
closed = 1;
nodes = (
(655,307,o),
(559,53,o),
(301,53,cs),
(246,53,o),
(190,55,o),
(140,62,c),
(228,799,l),
(279,808,o),
(343,809,o),
(395,809,cs),
(559,809,o),
(651,701,o),
(652,547,cs)
);
}
);
width = 777;
}
);
unicode = 68;
},
{
glyphname = E;
layers = (
{
layerId = master01;
shapes = (
{
closed = 1;
nodes = (
(56,13,o),
(67,0,o),
(91,0,cs),
(495,0,ls),
(511,0,o),
(523,13,o),
(523,34,cs),
(523,55,o),
(513,64,o),
(497,64,cs),
(140,64,l),
(184,421,l),
(467,421,ls),
(495,421,o),
(505,431,o),
(505,458,cs),
(505,477,o),
(491,484,o),
(470,484,cs),
(193,484,l),
(226,797,l),
(562,797,ls),
(590,797,o),
(599,806,o),
(599,833,cs),
(599,851,o),
(586,860,o),
(568,860,cs),
(182,860,ls),
(166,860,o),
(154,847,o),
(154,826,c),
(58,31,ls,{
name = hr00;
})
);
}
);
width = 599;
}
);
unicode = 69;
},
{
glyphname = F;
layers = (
{
layerId = master01;
shapes = (
{
closed = 1;
nodes = (
(55,0,o),
(57,-14,o),
(94,-14,cs),
(129,-14,o),
(132,0,o),
(137,39,cs),
(185,421,l),
(501,421,ls),
(529,421,o),
(539,431,o),
(539,458,cs),
(539,477,o),
(524,484,o),
(504,484,cs),
(193,484,l),
(227,797,l),
(563,797,ls),
(591,797,o),
(599,806,o),
(599,833,cs),
(599,851,o),
(587,860,o),
(568,860,cs),
(182,860,ls),
(167,860,o),
(154,847,o),
(154,826,c),
(59,39,ls,{
name = hr00;
})
);
}
);
width = 553;
}
);
unicode = 70;
},
{
glyphname = G;
layers = (
{
layerId = master01;
shapes = (
{
closed = 1;
nodes = (
(151,872,o),
(42,587,o),
(42,330,cs),
(42,137,o),
(122,-14,o),
(329,-14,cs),
(407,-14,o),
(486,15,o),
(539,70,c),
(531,17,ls),
(526,-7,o),
(550,-14,o),
(573,-14,cs),
(596,-14,o),
(609,-10,o),
(612,14,cs),
(662,421,ls),
(665,440,o),
(654,452,o),
(631,452,cs),
(328,452,ls),
(312,452,o),
(300,438,o),
(300,420,cs),
(300,399,o),
(309,389,o),
(326,389,cs),
(578,389,l),
(557,225,ls),
(545,126,o),
(444,53,o),
(337,53,cs),
(192,53,o),
(122,188,o),
(122,325,cs),
(122,524,o),
(210,811,o),
(424,811,cs),
(546,811,o),
(585,732,o),
(596,732,cs),
(616,732,o),
(641,756,o),
(641,774,cs),
(641,795,o),
(557,872,o),
(427,872,cs,{
name = hr00;
})
);
}
);
width = 729;
}
);
unicode = 71;
},
{
glyphname = H;
layers = (
{
layerId = master01;
shapes = (
{
closed = 1;
nodes = (
(700,780,o),
(708,846,o),
(708,848,cs),
(708,868,o),
(693,872,o),
(675,872,cs),
(654,872,o),
(633,867,o),
(630,840,cs),
(612,698,o),
(599,588,o),
(587,491,c),
(192,491,l),
(235,843,o),
(236,846,o),
(236,848,cs),
(236,868,o),
(221,872,o),
(203,872,cs),
(182,872,o),
(161,867,o),
(158,840,cs),
(57,17,o),
(57,15,o),
(57,14,cs),
(57,-11,o),
(75,-14,o),
(97,-14,cs),
(115,-14,o),
(131,-7,o),
(134,18,cs),
(185,428,l),
(579,428,l),
(530,25,o),
(529,15,o),
(529,14,cs),
(529,-11,o),
(547,-14,o),
(569,-14,cs),
(587,-14,o),
(603,-7,o),
(606,18,cs,{
name = hr00;
})
);
}
);
width = 764;
}
);
unicode = 72;
},
{
glyphname = I;
layers = (
{
layerId = master01;
shapes = (
{
closed = 1;
nodes = (
(228,780,o),
(236,846,o),
(236,848,cs),
(236,868,o),
(221,872,o),
(203,872,cs),
(182,872,o),
(161,867,o),
(158,840,cs),
(57,17,o),
(57,15,o),
(57,14,cs),
(57,-11,o),
(75,-14,o),
(97,-14,cs),
(115,-14,o),
(131,-7,o),
(134,18,cs,{
name = hr00;
})
);
}
);
width = 293;
}
);
unicode = 73;
},
{
glyphname = J;
layers = (
{
layerId = master01;
shapes = (
{
closed = 1;
nodes = (
(375,834,ls),
(375,850,o),
(364,860,o),
(343,860,cs),
(42,860,ls),
(27,860,o),
(14,847,o),
(14,826,cs),
(14,805,o),
(24,795,o),
(41,795,cs),
(294,795,l),
(227,209,ls),
(207,43,o),
(168,-69,o),
(-11,-69,cs),
(-55,-69,o),
(-57,-59,o),
(-83,-59,cs),
(-101,-59,o),
(-113,-74,o),
(-113,-90,cs),
(-113,-130,o),
(-48,-141,o),
(-4,-141,cs),
(214,-141,o),
(279,-14,o),
(302,189,cs),
(375,829,l,{
name = hr00;
})
);
}
);
width = 431;
}
);
unicode = 74;
},
{
glyphname = K;
layers = (
{
layerId = master01;
shapes = (
{
closed = 1;
nodes = (
(154,186,o),
(171,320,o),
(184,427,c),
(232,427,ls),
(378,427,o),
(386,351,o),
(433,214,cs),
(503,8,ls),
(509,-10,o),
(519,-14,o),
(540,-14,cs),
(563,-14,o),
(581,-4,o),
(581,13,cs),
(581,15,o),
(581,18,o),
(580,21,cs),
(518,202,ls),
(484,301,o),
(462,417,o),
(364,458,c),
(365,465,l),
(496,531,o),
(605,697,o),
(605,841,cs),
(605,862,o),
(591,872,o),
(570,872,cs),
(543,872,o),
(529,864,o),
(529,841,cs),
(529,707,o),
(389,486,o),
(239,486,cs),
(192,486,l),
(231,808,o),
(236,846,o),
(236,848,cs),
(236,868,o),
(221,872,o),
(203,872,cs),
(182,872,o),
(161,867,o),
(158,840,cs),
(57,17,o),
(57,15,o),
(57,14,cs),
(57,-11,o),
(75,-14,o),
(97,-14,cs),
(115,-14,o),
(131,-7,o),
(134,18,cs,{
name = hr00;
})
);
}
);
width = 633;
}
);
unicode = 75;
},
{
glyphname = L;
layers = (
{
layerId = master01;
shapes = (
{
closed = 1;
nodes = (
(230,847,ls),
(230,868,o),
(214,872,o),
(197,872,cs),
(176,872,o),
(155,867,o),
(153,840,cs),
(56,31,l),
(56,25,ls),
(56,10,o),
(67,0,o),
(88,0,cs),
(489,0,ls),
(504,0,o),
(517,13,o),
(517,34,cs),
(517,55,o),
(507,64,o),
(490,64,cs),
(137,64,l),
(230,840,l,{
name = hr00;
})
);
}
);
width = 524;
}
);
unicode = 76;
},
{
glyphname = M;
layers = (
{
layerId = master01;
shapes = (
{
closed = 1;
nodes = (
(354,28,ls),
(358,6,o),
(385,0,o),
(399,0,cs),
(421,0,o),
(437,7,o),
(445,28,cs),
(724,721,l),
(668,15,l),
(668,-8,o),
(678,-14,o),
(701,-14,cs,{
name = hr01;
}),
(725,-14,o),
(742,-7,o),
(743,15,cs),
(806,841,l),
(806,862,o),
(790,872,o),
(766,872,cs),
(748,872,ls),
(725,872,o),
(707,861,o),
(699,841,cs),
(409,144,l),
(279,841,ls),
(275,862,o),
(255,874,o),
(234,874,cs,{
name = hr02;
}),
(223,874,ls),
(200,874,o),
(176,864,o),
(172,841,cs),
(36,15,l),
(36,8,ls),
(36,-10,o),
(46,-14,o),
(67,-14,cs),
(92,-14,o),
(108,-7,o),
(112,15,cs),
(225,724,l)
);
}
);
width = 878;
}
);
unicode = 77;
},
{
glyphname = N;
layers = (
{
layerId = master01;
shapes = (
{
closed = 1;
nodes = (
(501,13,ls),
(509,-7,o),
(528,-14,o),
(545,-14,cs),
(564,-14,ls),
(587,-14,o),
(601,-4,o),
(603,17,cs),
(701,819,ls),
(702,829,o),
(703,836,o),
(703,843,cs),
(703,865,o),
(695,872,o),
(665,872,cs),
(629,872,o),
(628,854,o),
(624,819,cs),
(543,139,l),
(262,847,ls),
(255,866,o),
(235,872,o),
(221,872,cs),
(199,872,ls),
(176,872,o),
(158,864,o),
(155,841,cs),
(59,39,ls),
(58,29,o),
(57,21,o),
(57,14,cs),
(57,-8,o),
(65,-14,o),
(95,-14,cs),
(122,-14,o),
(131,-6,o),
(136,39,cs),
(218,727,l,{
name = hr00;
})
);
}
);
width = 760;
}
);
unicode = 78;
},
{
glyphname = Eng;
layers = (
{
layerId = master01;
shapes = (
{
closed = 1;
nodes = (
(702,829,o),
(703,836,o),
(703,843,cs),
(703,865,o),
(695,872,o),
(665,872,cs),
(629,872,o),
(628,854,o),
(624,819,cs),
(543,139,l),
(262,847,ls),
(255,866,o),
(235,872,o),
(221,872,cs),
(199,872,ls),
(176,872,o),
(158,864,o),
(155,841,cs),
(59,39,ls),
(58,29,o),
(57,21,o),
(57,14,cs),
(57,-8,o),
(65,-14,o),
(95,-14,cs),
(122,-14,o),
(131,-6,o),
(136,39,cs),
(218,727,l),
(513,-6,ls),
(487,-221,o),
(470,-276,o),
(378,-276,cs),
(304,-276,o),
(272,-234,o),
(266,-234,cs),
(248,-234,o),
(225,-263,o),
(225,-281,cs),
(225,-302,o),
(298,-343,o),
(378,-343,cs),
(526,-343,o),
(570,-238,o),
(588,-92,cs),
(701,819,ls,{
name = hr00;
})
);
}
);
width = 760;
}
);
unicode = 330;
},
{
glyphname = O;
layers = (
{
layerId = master01;
shapes = (
{
closed = 1;
nodes = (
(692,722,o),
(623,872,o),
(416,872,cs),
(139,872,o),
(42,546,o),
(42,321,cs),
(42,137,o),
(112,-14,o),
(318,-14,cs),
(596,-14,o),
(692,312,o),
(692,539,cs,{
name = hr00;
})
);
},
{
closed = 1;
nodes = (
(172,50,o),
(123,182,o),
(123,315,cs),
(123,483,o),
(188,811,o),
(409,811,cs),
(563,811,o),
(612,679,o),
(612,546,cs),
(612,378,o),
(547,50,o),
(326,50,cs)
);
}
);
width = 734;
}
);
unicode = 79;
},
{
glyphname = OE;
layers = (
{
layerId = master01;
shapes = (
{
closed = 1;
nodes = (
(692,643,o),
(670,736,o),
(613,797,c),
(958,797,ls),
(986,797,o),
(995,806,o),
(995,833,cs),
(995,851,o),
(982,860,o),
(964,860,cs),
(509,860,l),
(481,868,o),
(451,872,o),
(416,872,cs,{
name = hr01;
}),
(139,872,o),
(42,546,o),
(42,321,cs),
(42,137,o),
(112,-14,o),
(318,-14,cs),
(352,-14,o),
(383,-9,o),
(412,0,c,{
name = hr02;
}),
(891,0,ls),
(907,0,o),
(919,13,o),
(919,34,cs),
(919,55,o),
(909,64,o),
(893,64,cs,{
name = hr03;
}),
(523,64,l),
(616,148,o),
(665,289,o),
(683,421,c),
(883,421,ls),
(911,421,o),
(921,431,o),
(921,458,cs),
(921,477,o),
(907,484,o),
(886,484,cs),
(690,484,l),
(691,503,o),
(692,521,o),
(692,539,cs)
);
},
{
closed = 1;
nodes = (
(172,50,o),
(123,182,o),
(123,315,cs),
(123,483,o),
(188,811,o),
(409,811,cs),
(563,811,o),
(612,679,o),
(612,546,cs),
(612,378,o),
(547,50,o),
(326,50,cs,{
name = hr04;
})
);
}
);
width = 995;
}
);
unicode = 338;
},
{
glyphname = P;
layers = (
{
layerId = master01;
shapes = (
{
closed = 1;
nodes = (
(119,-14,o),
(133,-6,o),
(135,18,cs),
(177,368,l),
(406,358,o),
(642,433,o),
(641,654,cs),
(639,798,o),
(536,872,o),
(378,872,cs),
(313,872,o),
(252,864,o),
(189,857,cs),
(176,855,o),
(161,847,o),
(159,833,cs),
(58,14,ls),
(56,-10,o),
(78,-14,o),
(99,-14,cs,{
name = hr00;
})
);
},
{
closed = 1;
nodes = (
(561,475,o),
(371,434,o),
(187,437,c),
(231,799,l),
(284,806,o),
(331,809,o),
(379,809,cs),
(488,809,o),
(558,757,o),
(560,654,cs)
);
}
);
width = 646;
}
);
unicode = 80;
},
{
glyphname = Thorn;
layers = (
{
layerId = master01;
shapes = (
{
closed = 1;
nodes = (
(169,198,o),
(181,198,o),
(194,198,cs),
(411,198,o),
(619,277,o),
(619,485,cs),
(619,629,o),
(514,703,o),
(356,703,cs),
(308,703,o),
(263,699,o),
(217,694,c),
(234,827,o),
(236,847,o),
(236,848,cs),
(236,868,o),
(221,872,o),
(203,872,cs),
(182,872,o),
(161,867,o),
(158,840,cs),
(57,17,o),
(57,15,o),
(57,14,cs),
(57,-11,o),
(75,-14,o),
(97,-14,cs),
(115,-14,o),
(131,-7,o),
(134,18,cs),
(156,199,l,{
name = hr00;
})
);
},
{
closed = 1;
nodes = (
(538,304,o),
(350,268,o),
(165,268,c),
(209,630,l),
(262,637,o),
(309,640,o),
(357,640,cs),
(466,640,o),
(538,588,o),
(538,485,cs)
);
}
);
width = 644;
}
);
unicode = 222;
},
{
glyphname = Q;
layers = (
{
layerId = master01;
shapes = (
{
closed = 1;
nodes = (
(689,722,o),
(620,872,o),
(413,872,cs),
(136,872,o),
(39,546,o),
(39,321,cs),
(39,137,o),
(109,-14,o),
(315,-14,cs),
(358,-14,o),
(398,-6,o),
(433,8,c),
(539,-94,ls),
(566,-120,o),
(573,-127,o),
(585,-127,cs),
(605,-127,o),
(627,-111,o),
(627,-91,cs),
(627,-74,o),
(623,-69,o),
(591,-39,cs),
(501,48,l),
(637,154,o),
(689,372,o),
(689,539,cs,{
name = hr00;
})
);
},
{
closed = 1;
nodes = (
(169,50,o),
(120,182,o),
(120,315,cs),
(120,483,o),
(185,811,o),
(406,811,cs),
(560,811,o),
(609,679,o),
(609,546,cs),
(609,416,o),
(570,192,o),
(452,97,c),
(389,158,ls),
(358,189,o),
(347,199,o),
(333,199,cs),
(315,199,o),
(294,183,o),
(294,162,cs),
(294,146,o),
(304,134,o),
(332,106,cs),
(381,59,l),
(363,53,o),
(344,50,o),
(323,50,cs)
);
}
);
width = 729;
}
);
unicode = 81;
},
{
glyphname = R;
layers = (
{
layerId = master01;
shapes = (
{
closed = 1;
nodes = (
(119,-14,o),
(130,-8,o),
(133,13,cs),
(183,423,l),
(297,423,ls),
(358,423,o),
(382,414,o),
(399,403,cs),
(441,377,o),
(469,298,o),
(497,214,cs),
(567,8,ls),
(573,-10,o),
(584,-14,o),
(605,-14,cs),
(627,-14,o),
(645,-4,o),
(645,13,cs),
(645,15,o),
(645,18,o),
(644,21,cs),
(582,202,ls),
(549,301,o),
(526,417,o),
(428,458,c),
(561,484,o),
(641,571,o),
(641,678,cs),
(641,811,o),
(531,872,o),
(388,872,cs),
(259,872,o),
(185,857,o),
(185,857,c),
(171,855,o),
(160,846,o),
(158,834,cs),
(57,15,l),
(57,11,ls),
(57,-7,o),
(73,-14,o),
(94,-14,cs,{
name = hr00;
})
);
},
{
closed = 1;
nodes = (
(230,799,l),
(280,808,o),
(332,811,o),
(381,811,cs),
(473,811,o),
(560,764,o),
(560,676,cs),
(560,540,o),
(402,489,o),
(309,489,cs),
(192,489,l)
);
}
);
width = 699;
}
);
unicode = 82;
},
{
glyphname = S;
layers = (
{
layerId = master01;
shapes = (
{
closed = 1;
nodes = (
(227,872,o),
(112,798,o),
(112,657,cs),
(112,452,o),
(441,385,o),
(441,221,cs),
(441,119,o),
(364,50,o),
(255,50,cs),
(178,50,o),
(133,77,o),
(99,126,cs),
(80,157,o),
(74,189,o),
(49,189,cs),
(28,189,o),
(17,172,o),
(17,154,cs),
(17,116,o),
(46,73,o),
(76,48,cs),
(127,4,o),
(193,-14,o),
(258,-14,cs),
(412,-14,o),
(521,74,o),
(521,225,cs),
(521,438,o),
(193,503,o),
(193,659,cs),
(193,752,o),
(260,809,o),
(358,809,cs),
(472,809,o),
(503,731,o),
(540,731,cs),
(557,731,o),
(568,742,o),
(568,762,cs),
(568,811,o),
(469,872,o),
(368,872,cs,{
name = hr00;
})
);
}
);
width = 596;
}
);
unicode = 83;
},
{
glyphname = T;
layers = (
{
layerId = master01;
shapes = (
{
closed = 1;
nodes = (
(552,797,o),
(564,809,o),
(564,833,cs),
(564,851,o),
(550,860,o),
(532,860,cs),
(73,860,ls),
(49,860,o),
(36,847,o),
(36,823,cs),
(36,805,o),
(50,797,o),
(69,797,cs),
(258,797,l),
(162,18,o),
(162,15,o),
(162,14,cs),
(162,-11,o),
(180,-14,o),
(202,-14,cs),
(220,-14,o),
(236,-7,o),
(239,18,cs),
(335,797,l),
(528,797,ls,{
name = hr00;
})
);
}
);
width = 515;
}
);
unicode = 84;
},
{
glyphname = U;
layers = (
{
layerId = master01;
shapes = (
{
closed = 1;
nodes = (
(59,287,o),
(56,255,o),
(56,225,cs),
(56,76,o),
(116,-14,o),
(302,-14,cs),
(531,-14,o),
(585,108,o),
(612,322,cs),
(675,846,l),
(675,862,o),
(666,872,o),
(640,872,cs),
(619,872,o),
(602,862,o),
(599,846,cs),
(535,322,ls),
(515,160,o),
(486,52,o),
(311,52,cs),
(174,52,o),
(134,120,o),
(134,228,cs),
(134,256,o),
(137,288,o),
(141,322,cs),
(204,846,l),
(204,862,o),
(196,872,o),
(169,872,cs),
(148,872,o),
(132,862,o),
(129,846,cs),
(63,322,ls,{
name = hr00;
})
);
}
);
width = 741;
}
);
unicode = 85;
},
{
glyphname = V;
layers = (
{
layerId = master01;
shapes = (
{
closed = 1;
nodes = (
(147,843,l),
(141,867,o),
(129,872,o),
(104,872,cs),
(81,872,o),
(66,864,o),
(66,847,cs),
(66,844,o),
(67,841,o),
(67,839,cs),
(199,15,l),
(204,-8,o),
(224,-14,o),
(249,-14,cs),
(274,-14,o),
(295,-7,o),
(305,15,cs),
(601,720,ls),
(633,795,o),
(645,833,o),
(645,839,cs),
(645,865,o),
(617,872,o),
(599,872,cs),
(577,872,o),
(567,839,o),
(542,778,cs),
(260,99,l,{
name = hr00;
})
);
}
);
width = 624;
}
);
unicode = 86;
},
{
glyphname = W;
layers = (
{
layerId = master01;
shapes = (
{
closed = 1;
nodes = (
(147,843,ls),
(143,867,o),
(129,872,o),
(104,872,cs),
(81,872,o),
(66,864,o),
(66,847,cs),
(66,844,o),
(67,841,o),
(67,839,cs),
(199,15,l),
(204,-8,o),
(224,-14,o),
(249,-14,cs),
(274,-14,o),
(295,-7,o),
(305,15,c),
(512,692,l),
(620,15,l),
(626,-8,o),
(645,-14,o),
(671,-14,cs),
(696,-14,o),
(717,-7,o),
(727,15,c),
(949,717,ls),
(983,825,o),
(986,836,o),
(986,839,cs),
(986,865,o),
(955,872,o),
(937,872,cs),
(917,872,o),
(914,855,o),
(910,844,cs),
(682,99,l),
(568,843,ls),
(564,867,o),
(550,872,o),
(525,872,cs),
(521,872,ls),
(497,872,o),
(491,855,o),
(487,841,cs),
(260,99,l,{
name = hr00;
})
);
}
);
width = 963;
}
);
unicode = 87;
},
{
glyphname = X;
layers = (
{
layerId = master01;
shapes = (
{
closed = 1;
nodes = (
(-31,45,l),
(-36,39,o),
(-41,28,o),
(-41,18,cs),
(-41,0,o),
(-25,-14,o),
(-6,-14,cs),
(14,-14,o),
(28,-3,o),
(41,15,cs),
(312,385,l),
(448,62,ls),
(473,0,o),
(480,-14,o),
(512,-14,cs),
(532,-14,o),
(547,-1,o),
(547,15,cs),
(547,34,o),
(543,42,o),
(518,99,cs),
(364,454,l),
(641,816,ls),
(647,823,o),
(650,832,o),
(650,839,cs),
(650,860,o),
(636,872,o),
(615,872,cs),
(596,872,o),
(585,864,o),
(571,846,cs),
(332,521,l),
(195,843,ls),
(185,865,o),
(174,872,o),
(148,872,cs),
(126,872,o),
(108,864,o),
(108,847,cs),
(108,844,o),
(109,841,o),
(280,455,c,{
name = hr00;
})
);
}
);
width = 640;
}
);
unicode = 88;
},
{
glyphname = Y;
layers = (
{
layerId = master01;
shapes = (
{
closed = 1;
nodes = (
(623,812,ls),
(630,821,o),
(634,834,o),
(634,844,cs),
(634,862,o),
(620,872,o),
(595,872,cs),
(575,872,o),
(564,865,o),
(556,854,cs),
(284,473,l),
(143,843,ls),
(134,865,o),
(125,872,o),
(99,872,cs),
(77,872,o),
(59,864,o),
(59,847,cs),
(59,844,o),
(60,841,o),
(60,839,cs),
(234,396,l),
(189,24,ls),
(188,16,o),
(188,10,o),
(188,9,cs),
(188,-12,o),
(207,-14,o),
(228,-14,cs),
(246,-14,o),
(262,-7,o),
(265,18,cs),
(312,393,l,{
name = hr00;
})
);
}
);
width = 596;
}
);
unicode = 89;
},
{
glyphname = Z;
layers = (
{
layerId = master01;
shapes = (
{
closed = 1;
nodes = (
(20,43,o),
(17,36,o),
(17,27,cs),
(17,8,o),
(31,0,o),
(49,0,cs),
(535,0,ls),
(559,0,o),
(571,13,o),
(571,36,cs),
(571,55,o),
(557,63,o),
(539,63,cs),
(119,63,l),
(119,63,o),
(146,95,o),
(169,136,cs),
(584,811,ls),
(587,816,o),
(589,823,o),
(589,833,cs),
(589,851,o),
(575,860,o),
(557,860,cs),
(123,860,ls),
(99,860,o),
(87,847,o),
(87,823,cs),
(87,805,o),
(101,797,o),
(119,797,cs),
(490,797,l),
(483,785,o),
(461,757,o),
(442,727,cs),
(22,49,ls,{
name = hr00;
})
);
}
);
width = 624;
}
);
unicode = 90;
},
{
glyphname = a;
layers = (
{
layerId = master01;
shapes = (
{
closed = 1;
nodes = (
(338,164,o),
(282,52,o),
(192,52,cs),
(145,52,o),
(117,84,o),
(117,123,cs),
(117,192,o),
(173,242,o),
(353,256,c)
);
},
{
closed = 1;
nodes = (
(448,479,o),
(366,507,o),
(282,507,cs),
(216,507,o),
(107,473,o),
(107,449,cs),
(107,431,o),
(117,402,o),
(136,402,cs),
(154,402,o),
(202,440,o),
(279,440,cs,{
name = hr01;
}),
(329,440,o),
(371,426,o),
(371,378,cs),
(371,363,o),
(370,340,o),
(366,316,c),
(114,300,o),
(38,206,o),
(38,108,cs),
(38,27,o),
(97,-14,o),
(166,-14,cs),
(229,-14,o),
(301,22,o),
(342,102,c,{
name = hr02;
}),
(342,76,ls),
(342,39,o),
(345,-14,o),
(364,-14,cs),
(383,-14,o),
(422,-4,o),
(422,14,cs),
(422,32,o),
(411,53,o),
(411,98,cs),
(411,197,o),
(448,329,o),
(448,392,cs)
);
}
);
width = 501;
}
);
unicode = 97;
},
{
glyphname = ae;
layers = (
{
layerId = master01;
shapes = (
{
closed = 1;
nodes = (
(634,-14,o),
(718,35,o),
(718,56,cs),
(718,74,o),
(707,101,o),
(691,101,cs),
(686,101,o),
(637,48,o),
(568,48,cs),
(478,48,o),
(432,115,o),
(432,213,c),
(614,213,o),
(749,286,o),
(749,405,cs),
(749,472,o),
(694,507,o),
(624,507,cs),
(562,507,o),
(489,478,o),
(435,418,c),
(422,485,o),
(357,507,o),
(282,507,cs),
(216,507,o),
(107,473,o),
(107,449,cs),
(107,431,o),
(117,402,o),
(136,402,cs),
(154,402,o),
(202,440,o),
(279,440,cs,{
name = hr01;
}),
(329,440,o),
(371,426,o),
(371,378,cs),
(371,363,o),
(361,300,o),
(357,276,c),
(317,286,o),
(281,290,o),
(248,290,cs),
(102,290,o),
(38,188,o),
(38,108,cs),
(38,27,o),
(97,-14,o),
(166,-14,cs),
(247,-14,o),
(319,43,o),
(369,128,c),
(390,37,o),
(453,-14,o),
(564,-14,cs)
);
},
{
closed = 1;
nodes = (
(336,156,o),
(282,52,o),
(192,52,cs),
(145,52,o),
(117,84,o),
(117,123,cs),
(117,208,o),
(186,235,o),
(260,235,cs),
(291,235,o),
(323,230,o),
(351,223,c)
);
},
{
closed = 1;
nodes = (
(456,386,o),
(558,447,o),
(620,447,cs),
(652,447,o),
(676,430,o),
(676,395,cs),
(676,318,o),
(554,265,o),
(436,265,c,{
name = hr02;
})
);
}
);
width = 759;
}
);
unicode = 230;
},
{
glyphname = b;
layers = (
{
layerId = master01;
shapes = (
{
closed = 1;
nodes = (
(163,189,ls),
(177,302,o),
(212,441,o),
(328,441,cs),
(392,441,o),
(429,377,o),
(429,301,cs),
(429,188,o),
(355,48,o),
(188,48,cs),
(182,48,o),
(153,49,o),
(146,50,c,{
name = hr00;
})
);
},
{
closed = 1;
nodes = (
(69,-11,o),
(143,-14,o),
(168,-14,cs),
(406,-14,o),
(511,161,o),
(511,309,cs),
(511,416,o),
(454,507,o),
(352,507,cs),
(280,507,o),
(236,480,o),
(191,424,c),
(246,866,l),
(246,882,o),
(230,887,o),
(215,887,cs),
(199,887,o),
(174,886,o),
(171,861,cs),
(69,29,l)
);
}
);
width = 550;
}
);
unicode = 98;
},
{
glyphname = c;
layers = (
{
layerId = master01;
shapes = (
{
closed = 1;
nodes = (
(151,507,o),
(53,358,o),
(53,209,cs),
(53,69,o),
(126,-14,o),
(266,-14,cs),
(336,-14,o),
(420,35,o),
(420,56,cs),
(420,74,o),
(409,101,o),
(394,101,cs),
(388,101,o),
(339,48,o),
(270,48,cs),
(181,48,o),
(135,109,o),
(135,207,cs),
(135,319,o),
(184,445,o),
(317,445,cs),
(382,445,o),
(403,405,o),
(415,405,cs,{
name = hr01;
}),
(434,405,o),
(452,428,o),
(452,447,cs),
(452,468,o),
(399,507,o),
(319,507,cs)
);
}
);
width = 457;
}
);
unicode = 99;
},
{
glyphname = d;
layers = (
{
layerId = master01;
shapes = (
{
closed = 1;
nodes = (
(530,864,l),
(530,879,o),
(519,887,o),
(502,887,cs),
(479,887,o),
(457,882,o),
(456,864,c),
(411,507,l),
(121,507,o),
(42,302,o),
(42,167,cs),
(42,41,o),
(118,-14,o),
(198,-14,cs),
(269,-14,o),
(345,28,o),
(377,102,c),
(381,76,o),
(383,-14,o),
(409,-14,cs),
(427,-14,o),
(464,-4,o),
(464,14,cs),
(464,35,o),
(446,64,o),
(446,129,cs),
(446,150,o),
(447,175,o),
(450,207,c,{
name = hr00;
})
);
},
{
closed = 1;
nodes = (
(387,304,ls),
(373,190,o),
(338,52,o),
(222,52,cs),
(154,52,o),
(124,111,o),
(124,176,cs),
(124,321,o),
(231,445,o),
(380,445,cs),
(383,445,o),
(399,444,o),
(404,442,c)
);
}
);
width = 530;
}
);
unicode = 100;
},
{
glyphname = eth;
layers = (
{
layerId = master01;
shapes = (
{
closed = 1;
nodes = (
(53,91,o),
(118,-14,o),
(249,-14,cs),
(437,-14,o),
(513,159,o),
(513,348,cs),
(513,607,o),
(387,883,o),
(181,883,cs),
(148,883,o),
(80,873,o),
(80,835,cs),
(80,816,o),
(90,801,o),
(107,801,cs),
(129,801,o),
(138,816,o),
(178,816,cs,{
name = hr01;
}),
(283,816,o),
(408,686,o),
(435,460,c),
(401,498,o),
(351,507,o),
(317,507,cs),
(130,507,o),
(53,342,o),
(53,207,cs)
);
},
{
closed = 1;
nodes = (
(133,319,o),
(189,445,o),
(310,445,cs),
(396,445,o),
(436,371,o),
(436,274,cs),
(436,154,o),
(361,48,o),
(258,48,cs),
(171,48,o),
(133,120,o),
(133,217,cs)
);
},
{
pos = (184,349);
ref = eslash;
}
);
width = 536;
}
);
unicode = 240;
},
{
glyphname = e;
layers = (
{
layerId = master01;
shapes = (
{
closed = 1;
nodes = (
(158,386,o),
(260,447,o),
(322,447,cs),
(354,447,o),
(378,430,o),
(378,395,cs),
(378,318,o),
(256,265,o),
(138,265,c,{
name = hr00;
})
);
},
{
closed = 1;
nodes = (
(53,67,o),
(126,-14,o),
(266,-14,cs),
(336,-14,o),
(420,35,o),
(420,56,cs),
(420,74,o),
(409,101,o),
(393,101,cs),
(388,101,o),
(339,48,o),
(270,48,cs),
(180,48,o),
(134,108,o),
(134,206,c),
(309,206,o),
(451,286,o),
(451,405,cs),
(451,472,o),
(396,507,o),
(326,507,cs),
(214,507,o),
(54,413,o),
(53,207,cs)
);
}
);
width = 461;
}
);
unicode = 101;
},
{
glyphname = f;
layers = (
{
layerId = master01;
shapes = (
{
closed = 1;
nodes = (
(339,426,o),
(353,447,o),
(353,463,cs),
(353,482,o),
(344,493,o),
(330,493,cs),
(232,493,l),
(245,600,ls),
(256,696,o),
(269,813,o),
(369,813,cs),
(427,813,o),
(453,794,o),
(460,794,cs),
(478,794,o),
(495,829,o),
(495,847,cs),
(495,864,o),
(428,882,o),
(368,882,cs),
(221,882,o),
(188,745,o),
(173,607,cs),
(160,493,l),
(76,493,ls),
(61,493,o),
(45,473,o),
(45,456,cs),
(45,442,o),
(54,426,o),
(72,426,cs),
(152,426,l),
(115,104,ls),
(80,-202,o),
(61,-276,o),
(-37,-276,cs),
(-110,-276,o),
(-142,-234,o),
(-148,-234,cs),
(-166,-234,o),
(-188,-265,o),
(-188,-281,cs),
(-188,-302,o),
(-117,-344,o),
(-37,-344,cs),
(101,-344,o),
(147,-228,o),
(163,-91,cs),
(223,426,l),
(323,426,ls,{
name = hr00;
})
);
}
);
width = 330;
}
);
unicode = 102;
},
{
glyphname = g;
layers = (
{
layerId = master01;
shapes = (
{
closed = 1;
nodes = (
(387,304,l),
(371,190,o),
(338,52,o),
(222,52,cs),
(154,52,o),
(124,111,o),
(124,176,cs),
(124,321,o),
(231,445,o),
(380,445,cs),
(383,445,o),
(399,444,o),
(404,442,c,{
name = hr00;
})
);
},
{
closed = 1;
nodes = (
(336,-213,o),
(300,-279,o),
(178,-279,cs),
(94,-279,o),
(38,-227,o),
(33,-227,cs),
(14,-227,o),
(3,-265,o),
(3,-283,cs),
(3,-302,o),
(87,-343,o),
(180,-343,cs),
(342,-343,o),
(392,-234,o),
(411,-91,cs),
(481,463,l),
(481,504,o),
(432,507,o),
(411,507,cs),
(121,507,o),
(42,302,o),
(42,167,cs),
(42,41,o),
(118,-14,o),
(198,-14,cs),
(269,-14,o),
(314,8,o),
(359,69,c)
);
}
);
width = 524;
}
);
unicode = 103;
},
{
glyphname = h;
layers = (
{
layerId = master01;
shapes = (
{
closed = 1;
nodes = (
(184,336,o),
(243,441,o),
(346,441,cs),
(405,441,o),
(436,417,o),
(436,368,cs),
(436,364,o),
(434,358,o),
(434,353,cs),
(392,6,l),
(392,-10,o),
(401,-14,o),
(418,-14,cs),
(441,-14,o),
(464,-11,o),
(467,11,cs),
(511,350,o),
(513,363,o),
(513,374,cs),
(513,455,o),
(460,507,o),
(356,507,cs),
(287,507,o),
(234,473,o),
(194,416,c),
(246,866,l),
(246,880,o),
(232,887,o),
(215,887,cs),
(191,887,o),
(174,883,o),
(171,861,cs),
(69,6,l),
(69,-10,o),
(77,-14,o),
(96,-14,cs),
(118,-14,o),
(140,-11,o),
(143,11,cs),
(166,195,ls,{
name = hr00;
})
);
}
);
width = 569;
}
);
unicode = 104;
},
{
glyphname = i;
layers = (
{
layerId = master01;
shapes = (
{
closed = 1;
nodes = (
(201,501,o),
(188,507,o),
(170,507,cs),
(147,507,o),
(129,504,o),
(126,482,cs),
(69,6,l),
(69,-10,o),
(77,-14,o),
(96,-14,cs),
(118,-14,o),
(140,-11,o),
(143,11,cs),
(201,487,l,{
name = hr00;
})
);
},
{
closed = 1;
nodes = (
(241,713,o),
(231,729,o),
(196,729,cs),
(150,729,o),
(139,699,o),
(139,668,cs),
(139,647,o),
(149,630,o),
(184,630,cs),
(230,630,o),
(241,661,o),
(241,692,cs)
);
}
);
width = 244;
}
);
unicode = 105;
},
{
glyphname = dotlessi;
layers = (
{
layerId = master01;
shapes = (
{
closed = 1;
nodes = (
(201,501,o),
(188,507,o),
(170,507,cs),
(147,507,o),
(129,504,o),
(126,482,cs),
(69,6,l),
(69,-10,o),
(77,-14,o),
(96,-14,cs),
(118,-14,o),
(140,-11,o),
(143,11,cs),
(201,487,l,{
name = hr00;
})
);
}
);
width = 244;
}
);
unicode = 305;
},
{
glyphname = j;
layers = (
{
layerId = master01;
shapes = (
{
closed = 1;
nodes = (
(77,-343,o),
(112,-227,o),
(128,-91,cs),
(196,487,l),
(196,503,o),
(188,507,o),
(170,507,cs),
(147,507,o),
(125,504,o),
(122,482,cs),
(80,105,ls),
(46,-202,o),
(35,-276,o),
(-71,-276,cs),
(-145,-276,o),
(-177,-234,o),
(-183,-234,cs),
(-201,-234,o),
(-224,-263,o),
(-224,-281,cs),
(-224,-302,o),
(-151,-343,o),
(-71,-343,cs,{
name = hr00;
})
);
},
{
closed = 1;
nodes = (
(241,713,o),
(231,729,o),
(196,729,cs),
(150,729,o),
(139,699,o),
(139,668,cs),
(139,647,o),
(149,630,o),
(184,630,cs),
(230,630,o),
(241,661,o),
(241,692,cs)
);
}
);
width = 242;
}
);
unicode = 106;
},
{
glyphname = dotlessj;
layers = (
{
layerId = master01;
shapes = (
{
closed = 1;
nodes = (
(77,-343,o),
(112,-227,o),
(128,-91,cs),
(196,487,l),
(196,503,o),
(188,507,o),
(170,507,cs),
(147,507,o),
(125,504,o),
(122,482,cs),
(80,105,ls),
(46,-202,o),
(35,-276,o),
(-71,-276,cs),
(-145,-276,o),
(-177,-234,o),
(-183,-234,cs),
(-201,-234,o),
(-224,-263,o),
(-224,-281,cs),
(-224,-302,o),
(-151,-343,o),
(-71,-343,cs,{
name = hr00;
})
);
}
);
width = 242;
}
);
unicode = 567;
},
{
glyphname = k;
layers = (
{
layerId = master01;
shapes = (
{
closed = 1;
nodes = (
(244,880,o),
(230,887,o),
(213,887,cs),
(190,887,o),
(173,883,o),
(170,861,cs),
(68,6,l),
(68,-10,o),
(76,-14,o),
(94,-14,cs),
(117,-14,o),
(139,-11,o),
(142,11,cs),
(166,210,l),
(201,239,l),
(311,77,ls),
(352,17,o),
(387,-22,o),
(413,-22,cs,{
name = hr01;
}),
(426,-22,o),
(451,4,o),
(451,25,cs),
(451,45,o),
(426,45,o),
(360,137,cs),
(255,286,l),
(418,424,o),
(447,455,o),
(447,475,c),
(446,489,o),
(429,507,o),
(409,507,c),
(392,505,o),
(381,480,o),
(177,300,c),
(244,866,l)
);
}
);
width = 471;
}
);
unicode = 107;
},
{
glyphname = kgreenlandic;
layers = (
{
layerId = master01;
shapes = (
{
closed = 1;
nodes = (
(375,347,o),
(466,455,o),
(466,475,cs),
(466,489,o),
(447,507,o),
(428,507,c),
(410,505,o),
(395,450,o),
(175,270,c),
(201,487,l),
(201,501,o),
(187,508,o),
(170,508,cs,{
name = hr01;
}),
(148,508,o),
(130,504,o),
(127,482,cs),
(69,6,l),
(69,-10,o),
(77,-14,o),
(95,-14,cs),
(118,-14,o),
(140,-11,o),
(143,11,cs),
(164,180,l)
);
},
{
closed = 1;
nodes = (
(330,77,ls),
(371,17,o),
(406,-22,o),
(432,-22,cs,{
name = hr02;
}),
(445,-22,o),
(470,4,o),
(470,25,cs),
(470,45,o),
(444,44,o),
(379,137,cs),
(274,286,l),
(220,239,l)
);
}
);
width = 490;
}
);
unicode = 312;
},
{
glyphname = l;
layers = (
{
layerId = master01;
shapes = (
{
closed = 1;
nodes = (
(246,880,o),
(232,887,o),
(215,887,cs),
(191,887,o),
(174,883,o),
(171,861,cs),
(69,6,l),
(69,-10,o),
(77,-14,o),
(96,-14,cs),
(118,-14,o),
(140,-11,o),
(143,11,cs),
(246,866,l,{
name = hr00;
})
);
}
);
width = 244;
}
);
unicode = 108;
},
{
glyphname = m;
layers = (
{
layerId = master01;
shapes = (
{
closed = 1;
nodes = (
(468,472,o),
(416,507,o),
(348,507,cs),
(289,507,o),
(236,468,o),
(198,417,c),
(192,417,l),
(201,487,l),
(201,501,o),
(188,507,o),
(170,507,cs),
(147,507,o),
(129,504,o),
(126,482,cs),
(69,6,l),
(69,-10,o),
(77,-14,o),
(96,-14,cs),
(118,-14,o),
(140,-11,o),
(143,11,cs),
(166,195,ls),
(182,329,o),
(230,441,o),
(327,441,cs),
(390,441,o),
(409,403,o),
(409,371,c),
(364,6,l),
(364,-10,o),
(373,-14,o),
(391,-14,cs),
(413,-14,o),
(436,-11,o),
(439,11,cs),
(462,195,ls),
(479,329,o),
(525,441,o),
(622,441,cs),
(685,441,o),
(705,403,o),
(705,371,c),
(663,6,l),
(663,-10,o),
(672,-14,o),
(689,-14,cs),
(712,-14,o),
(731,-11,o),
(734,11,cs),
(779,350,o),
(780,363,o),
(780,374,cs),
(780,455,o),
(728,507,o),
(643,507,cs),
(579,507,o),
(525,473,o),
(486,416,c),
(481,416,l,{
name = hr00;
})
);
}
);
width = 838;
}
);
unicode = 109;
},
{
glyphname = n;
layers = (
{
layerId = master01;
shapes = (
{
closed = 1;
nodes = (
(201,487,l),
(201,501,o),
(188,507,o),
(170,507,cs),
(147,507,o),
(129,504,o),
(126,482,cs),
(69,6,l),
(69,-10,o),
(77,-14,o),
(96,-14,cs),
(118,-14,o),
(140,-11,o),
(143,11,cs),
(166,195,ls),
(184,336,o),
(243,441,o),
(346,441,cs),
(405,441,o),
(436,417,o),
(436,368,cs),
(436,364,o),
(434,358,o),
(434,353,cs),
(392,6,l),
(392,-10,o),
(401,-14,o),
(418,-14,cs),
(441,-14,o),
(464,-11,o),
(467,11,cs),
(511,350,o),
(513,363,o),
(513,374,cs),
(513,455,o),
(460,507,o),
(356,507,cs),
(287,507,o),
(238,475,o),
(198,417,c),
(192,417,l,{
name = hr00;
})
);
}
);
width = 569;
}
);
unicode = 110;
},
{
glyphname = eng;
layers = (
{
layerId = master01;
shapes = (
{
closed = 1;
nodes = (
(365,-221,o),
(348,-276,o),
(256,-276,cs),
(182,-276,o),
(150,-234,o),
(144,-234,cs),
(126,-234,o),
(103,-263,o),
(103,-281,cs),
(103,-302,o),
(176,-343,o),
(256,-343,cs),
(404,-343,o),
(438,-227,o),
(455,-91,cs),
(511,350,o),
(513,363,o),
(513,374,cs),
(513,455,o),
(460,507,o),
(356,507,cs),
(287,507,o),
(238,475,o),
(198,417,c),
(192,417,l),
(201,487,l),
(201,501,o),
(188,507,o),
(170,507,cs),
(147,507,o),
(129,504,o),
(126,482,cs),
(69,6,l),
(69,-10,o),
(77,-14,o),
(96,-14,cs),
(118,-14,o),
(140,-11,o),
(143,11,cs),
(166,195,ls),
(184,336,o),
(243,441,o),
(346,441,cs),
(405,441,o),
(436,417,o),
(436,368,cs),
(436,364,o),
(435,358,o),
(391,-6,cs,{
name = hr00;
})
);
}
);
width = 569;
}
);
unicode = 331;
},
{
glyphname = o;
layers = (
{
layerId = master01;
shapes = (
{
closed = 1;
nodes = (
(55,91,o),
(118,-14,o),
(249,-14,cs),
(409,-14,o),
(513,123,o),
(513,283,cs),
(513,400,o),
(448,507,o),
(317,507,cs),
(130,507,o),
(53,342,o),
(53,207,c,{
name = hr00;
})
);
},
{
closed = 1;
nodes = (
(133,319,o),
(189,445,o),
(310,445,cs),
(396,445,o),
(436,371,o),
(436,274,cs),
(436,154,o),
(361,48,o),
(258,48,cs),
(171,48,o),
(133,120,o),
(133,217,cs)
);
}
);
width = 545;
}
);
unicode = 111;
},
{
glyphname = oe;
layers = (
{
layerId = master01;
shapes = (
{
closed = 1;
nodes = (
(629,-14,o),
(713,35,o),
(713,56,cs),
(713,74,o),
(702,101,o),
(686,101,cs),
(681,101,o),
(632,48,o),
(563,48,cs),
(473,48,o),
(427,108,o),
(427,206,c),
(602,206,o),
(744,286,o),
(744,405,cs),
(744,472,o),
(689,507,o),
(619,507,cs),
(568,507,o),
(507,488,o),
(456,447,c),
(424,484,o),
(378,507,o),
(317,507,cs),
(130,507,o),
(53,342,o),
(53,207,cs),
(53,91,o),
(118,-14,o),
(249,-14,cs),
(310,-14,o),
(362,6,o),
(404,39,c),
(440,4,o),
(492,-14,o),
(559,-14,cs,{
name = hr00;
})
);
},
{
closed = 1;
nodes = (
(346,163,o),
(353,126,o),
(367,94,c),
(337,65,o),
(300,48,o),
(258,48,cs),
(171,48,o),
(133,120,o),
(133,217,cs),
(133,319,o),
(189,445,o),
(310,445,cs),
(353,445,o),
(385,426,o),
(405,395,c),
(370,348,o),
(346,285,o),
(346,207,cs)
);
},
{
closed = 1;
nodes = (
(451,386,o),
(553,447,o),
(615,447,cs),
(647,447,o),
(671,430,o),
(671,395,cs),
(671,318,o),
(549,265,o),
(431,265,c)
);
}
);
width = 754;
}
);
unicode = 339;
},
{
glyphname = p;
layers = (
{
layerId = master01;
shapes = (
{
closed = 1;
nodes = (
(434,-14,o),
(513,190,o),
(513,326,cs),
(513,452,o),
(437,507,o),
(357,507,cs),
(289,507,o),
(236,473,o),
(195,416,c),
(202,487,l),
(202,501,o),
(189,507,o),
(173,507,cs),
(149,507,o),
(132,504,o),
(128,482,c),
(28,-330,l),
(28,-346,o),
(37,-350,o),
(55,-350,cs),
(77,-350,o),
(100,-347,o),
(103,-325,cs),
(145,-14,l,{
name = hr00;
})
);
},
{
closed = 1;
nodes = (
(168,189,ls),
(181,302,o),
(219,441,o),
(334,441,cs),
(401,441,o),
(432,382,o),
(432,316,cs),
(432,172,o),
(324,48,o),
(177,48,cs),
(174,48,o),
(156,49,o),
(152,50,c)
);
}
);
width = 555;
}
);
unicode = 112;
},
{
glyphname = thorn;
layers = (
{
layerId = master01;
shapes = (
{
closed = 1;
nodes = (
(168,189,ls),
(181,302,o),
(219,441,o),
(334,441,cs),
(401,441,o),
(432,382,o),
(432,316,cs),
(432,172,o),
(324,48,o),
(177,48,cs),
(174,48,o),
(156,49,o),
(152,50,c,{
name = hr00;
})
);
},
{
closed = 1;
nodes = (
(246,880,o),
(232,887,o),
(215,887,cs),
(191,887,o),
(174,883,o),
(171,861,cs),
(28,-330,l),
(28,-346,o),
(37,-350,o),
(55,-350,cs),
(77,-350,o),
(100,-347,o),
(103,-325,cs),
(145,-14,l),
(434,-14,o),
(513,190,o),
(513,326,cs),
(513,452,o),
(437,507,o),
(357,507,cs),
(289,507,o),
(233,473,o),
(192,416,c),
(246,866,l)
);
}
);
width = 555;
}
);
unicode = 254;
},
{
glyphname = q;
layers = (
{
layerId = master01;
shapes = (
{
closed = 1;
nodes = (
(507,-139,o),
(518,-120,o),
(518,-106,cs),
(518,-92,o),
(511,-81,o),
(497,-81,c),
(413,-99,l),
(481,463,ls),
(485,504,o),
(447,507,o),
(388,507,cs),
(294,507,o),
(215,483,o),
(149,417,cs),
(80,349,o),
(42,263,o),
(42,167,cs),
(42,60,o),
(94,-14,o),
(199,-14,cs),
(269,-14,o),
(322,14,o),
(359,69,c),
(336,-115,l),
(259,-132,l),
(244,-132,o),
(233,-147,o),
(233,-162,cs),
(233,-175,o),
(240,-188,o),
(255,-188,c),
(329,-172,l),
(311,-330,ls),
(310,-346,o),
(325,-350,o),
(341,-350,cs),
(366,-350,o),
(383,-347,o),
(387,-325,c),
(406,-155,l),
(492,-139,l,{
name = hr00;
})
);
},
{
closed = 1;
nodes = (
(387,304,l),
(371,190,o),
(338,52,o),
(222,52,cs),
(154,52,o),
(124,111,o),
(124,176,cs),
(124,321,o),
(231,445,o),
(380,445,cs),
(383,445,o),
(399,444,o),
(404,442,c)
);
}
);
width = 526;
}
);
unicode = 113;
},
{
glyphname = r;
layers = (
{
layerId = master01;
shapes = (
{
closed = 1;
nodes = (
(360,441,o),
(392,447,o),
(392,493,cs),
(392,505,o),
(388,514,o),
(363,514,cs),
(297,514,o),
(233,473,o),
(196,412,c),
(191,412,l),
(201,487,l,{
name = hr01;
}),
(201,501,o),
(188,507,o),
(170,507,cs),
(147,507,o),
(129,504,o),
(126,482,cs),
(69,6,l),
(69,-10,o),
(77,-14,o),
(96,-14,cs),
(118,-14,o),
(140,-11,o),
(143,11,cs),
(166,195,ls),
(181,318,o),
(243,441,o),
(346,441,cs)
);
}
);
width = 377;
}
);
unicode = 114;
},
{
glyphname = s;
layers = (
{
layerId = master01;
shapes = (
{
closed = 1;
nodes = (
(286,-14,o),
(338,57,o),
(338,122,cs),
(338,248,o),
(152,288,o),
(152,379,cs),
(152,420,o),
(180,445,o),
(224,445,cs),
(282,445,o),
(308,416,o),
(314,416,cs),
(332,416,o),
(341,444,o),
(341,461,cs),
(341,483,o),
(293,507,o),
(223,507,cs),
(138,507,o),
(80,442,o),
(80,372,cs),
(80,244,o),
(262,216,o),
(262,113,cs),
(262,64,o),
(212,48,o),
(177,48,cs),
(104,48,o),
(61,95,o),
(55,95,cs,{
name = hr01;
}),
(35,95,o),
(26,66,o),
(26,48,cs,{
name = hr02;
}),
(26,27,o),
(100,-14,o),
(180,-14,cs)
);
}
);
width = 372;
}
);
unicode = 115;
},
{
glyphname = germandbls;
layers = (
{
layerId = master01;
shapes = (
{
closed = 1;
nodes = (
(67,65,o),
(40,-155,o),
(40,-156,cs),
(40,-181,o),
(58,-184,o),
(80,-184,cs),
(98,-184,o),
(114,-177,o),
(117,-152,cs),
(203,541,ls),
(228,747,o),
(302,805,o),
(403,805,cs),
(480,805,o),
(544,764,o),
(544,677,cs),
(544,563,o),
(433,504,o),
(339,504,cs),
(314,504,o),
(300,495,o),
(300,470,cs),
(300,451,o),
(316,438,o),
(334,438,cs),
(493,438,o),
(563,342,o),
(563,247,cs,{
name = hr01;
}),
(563,153,o),
(495,50,o),
(379,50,cs),
(271,50,o),
(277,141,o),
(232,141,cs),
(215,141,o),
(206,131,o),
(206,111,cs),
(206,50,o),
(276,-14,o),
(372,-14,cs),
(496,-14,o),
(645,71,o),
(645,249,cs),
(645,342,o),
(577,446,o),
(490,477,c),
(578,511,o),
(630,585,o),
(630,677,cs,{
name = hr02;
}),
(630,805,o),
(527,872,o),
(409,872,cs),
(262,872,o),
(157,792,o),
(126,544,cs)
);
}
);
width = 710;
}
);
unicode = 223;
},
{
glyphname = t;
layers = (
{
layerId = master01;
shapes = (
{
closed = 1;
nodes = (
(81,493,o),
(69,472,o),
(69,455,cs),
(69,437,o),
(77,426,o),
(91,426,cs),
(148,426,l),
(122,207,ls),
(119,188,o),
(116,148,o),
(116,120,cs),
(116,50,o),
(130,-14,o),
(154,-14,cs),
(172,-14,o),
(207,-4,o),
(207,14,cs),
(207,35,o),
(190,64,o),
(190,129,cs,{
name = hr01;
}),
(190,150,o),
(190,175,o),
(195,207,cs),
(221,426,l),
(316,426,ls),
(333,426,o),
(346,447,o),
(346,463,cs),
(346,482,o),
(337,493,o),
(323,493,cs),
(230,493,l),
(251,668,l),
(251,678,o),
(248,680,o),
(230,680,cs),
(207,680,o),
(178,669,o),
(175,647,cs),
(157,493,l),
(98,493,ls)
);
}
);
width = 318;
}
);
unicode = 116;
},
{
glyphname = u;
layers = (
{
layerId = master01;
shapes = (
{
closed = 1;
nodes = (
(482,503,o),
(471,507,o),
(453,507,cs),
(430,507,o),
(409,504,o),
(406,482,cs),
(384,304,ls),
(370,192,o),
(329,52,o),
(217,52,cs),
(152,52,o),
(139,97,o),
(139,143,cs),
(139,217,o),
(157,335,o),
(177,487,c),
(177,504,o),
(157,507,o),
(146,507,cs),
(122,507,o),
(104,504,o),
(101,482,cs),
(73,258,o),
(63,165,o),
(63,141,cs),
(63,55,o),
(104,-14,o),
(196,-14,cs),
(280,-14,o),
(338,28,o),
(374,102,c),
(377,76,o),
(380,-14,o),
(406,-14,cs),
(425,-14,o),
(460,-4,o),
(460,14,cs),
(460,35,o),
(443,64,o),
(443,129,cs),
(443,150,o),
(443,175,o),
(447,207,cs),
(482,487,l,{
name = hr00;
})
);
}
);
width = 524;
}
);
unicode = 117;
},
{
glyphname = v;
layers = (
{
layerId = master01;
shapes = (
{
closed = 1;
nodes = (
(350,179,o),
(242,94,o),
(187,60,c),
(131,469,ls),
(127,498,o),
(122,507,o),
(91,507,cs),
(73,507,o),
(56,504,o),
(56,484,c),
(119,24,l),
(120,1,o),
(130,-14,o),
(155,-14,cs),
(284,-14,o),
(449,251,o),
(449,462,cs),
(449,501,o),
(445,507,o),
(417,507,cs),
(395,507,o),
(381,505,o),
(381,462,c,{
name = hr00;
})
);
}
);
width = 469;
}
);
unicode = 118;
},
{
glyphname = w;
layers = (
{
layerId = master01;
shapes = (
{
closed = 1;
nodes = (
(640,179,o),
(532,94,o),
(477,60,c),
(421,469,l),
(416,498,o),
(411,507,o),
(381,507,cs),
(362,507,o),
(346,504,o),
(346,484,c),
(368,319,l),
(311,151,o),
(232,87,o),
(187,60,c),
(131,469,l),
(126,498,o),
(122,507,o),
(91,507,cs),
(73,507,o),
(56,504,o),
(56,484,c),
(119,24,l),
(120,1,o),
(130,-14,o),
(155,-14,cs),
(234,-14,o),
(323,83,o),
(383,206,c),
(409,24,l),
(410,1,o),
(420,-14,o),
(445,-14,cs),
(574,-14,o),
(739,251,o),
(739,462,cs),
(739,501,o),
(735,507,o),
(707,507,cs),
(684,507,o),
(670,505,o),
(670,462,c,{
name = hr00;
})
);
}
);
width = 759;
}
);
unicode = 119;
},
{
glyphname = x;
layers = (
{
layerId = master01;
shapes = (
{
closed = 1;
nodes = (
(208,474,o),
(164,507,o),
(136,507,cs),
(123,507,o),
(95,479,o),
(95,458,cs),
(95,438,o),
(134,451,o),
(182,347,cs),
(228,248,l),
(76,63,o),
(20,50,o),
(20,22,cs),
(20,10,o),
(36,-14,o),
(60,-14,cs),
(78,-14,o),
(162,64,o),
(256,186,c),
(308,77,ls),
(339,11,o),
(382,-22,o),
(410,-22,cs,{
name = hr01;
}),
(423,-22,o),
(451,7,o),
(451,28,cs),
(451,48,o),
(412,36,o),
(363,137,cs),
(309,249,l),
(459,428,o),
(515,442,o),
(515,470,cs),
(515,483,o),
(498,507,o),
(475,507,cs),
(455,507,o),
(374,430,o),
(281,311,c),
(237,409,ls)
);
}
);
width = 535;
}
);
unicode = 120;
},
{
glyphname = y;
layers = (
{
layerId = master01;
shapes = (
{
closed = 1;
nodes = (
(323,157,o),
(240,70,o),
(197,56,c),
(141,469,ls),
(137,498,o),
(132,507,o),
(101,507,cs),
(83,507,o),
(66,504,o),
(66,484,c),
(129,24,ls),
(132,1,o),
(140,-14,o),
(165,-14,cs),
(209,-14,o),
(259,29,o),
(301,78,c),
(231,-230,o),
(183,-276,o),
(87,-276,cs),
(13,-276,o),
(-20,-234,o),
(-25,-234,cs),
(-42,-234,o),
(-66,-263,o),
(-66,-281,cs),
(-66,-302,o),
(7,-343,o),
(85,-343,cs),
(223,-343,o),
(289,-227,o),
(326,-91,cs),
(484,487,l),
(484,503,o),
(479,507,o),
(461,507,cs),
(438,507,o),
(415,504,o),
(409,482,cs),
(352,267,ls,{
name = hr00;
})
);
}
);
width = 498;
}
);
unicode = 121;
},
{
glyphname = z;
layers = (
{
layerId = master01;
shapes = (
{
closed = 1;
nodes = (
(401,-7,o),
(413,13,o),
(413,31,cs),
(413,48,o),
(405,59,o),
(391,59,cs),
(119,59,l),
(443,434,l),
(443,435,o),
(444,435,o),
(444,437,c),
(447,440,ls),
(451,447,o),
(454,455,o),
(454,463,cs),
(454,482,o),
(446,493,o),
(432,493,cs),
(117,493,ls),
(101,493,o),
(86,473,o),
(86,456,cs),
(86,442,o),
(96,426,o),
(112,426,cs),
(345,426,l),
(24,52,ls),
(17,45,o),
(12,34,o),
(12,24,cs),
(12,8,o),
(20,-7,o),
(37,-7,cs),
(384,-7,ls,{
name = hr00;
})
);
}
);
width = 461;
}
);
unicode = 122;
},
{
glyphname = f.alt;
layers = (
{
layerId = master01;
shapes = (
{
closed = 1;
nodes = (
(246,627,ls),
(254,706,o),
(285,814,o),
(404,814,cs),
(495,814,o),
(534,754,o),
(543,754,cs),
(562,754,o),
(583,785,o),
(583,801,cs),
(583,828,o),
(499,882,o),
(404,882,cs),
(246,882,o),
(192,766,o),
(176,629,cs),
(160,493,l),
(76,493,ls),
(61,493,o),
(45,473,o),
(45,456,cs),
(45,442,o),
(54,426,o),
(72,426,cs),
(152,426,l),
(115,104,ls),
(80,-202,o),
(61,-276,o),
(-37,-276,cs),
(-110,-276,o),
(-142,-234,o),
(-148,-234,cs),
(-166,-234,o),
(-188,-265,o),
(-188,-281,cs),
(-188,-302,o),
(-117,-344,o),
(-37,-344,cs),
(101,-344,o),
(147,-228,o),
(163,-91,cs),
(223,426,l),
(473,426,ls),
(489,426,o),
(503,447,o),
(503,463,cs),
(503,482,o),
(494,493,o),
(480,493,cs),
(231,493,l,{
name = hr00;
})
);
}
);
width = 330;
}
);
},
{
glyphname = f_f;
layers = (
{
layerId = master01;
shapes = (
{
closed = 1;
nodes = (
(-755,112,o),
(-769,91,o),
(-769,75,cs),
(-769,56,o),
(-760,45,o),
(-746,45,cs),
(-648,45,l),
(-661,-62,ls),
(-672,-158,o),
(-685,-275,o),
(-785,-275,cs),
(-843,-275,o),
(-869,-256,o),
(-876,-256,cs),
(-894,-256,o),
(-911,-291,o),
(-911,-309,cs),
(-911,-326,o),
(-844,-344,o),
(-784,-344,cs),
(-637,-344,o),
(-604,-207,o),
(-589,-69,cs),
(-576,45,l),
(-492,45,ls),
(-477,45,o),
(-461,65,o),
(-461,82,cs),
(-461,96,o),
(-470,112,o),
(-488,112,cs),
(-568,112,l),
(-531,434,ls),
(-496,740,o),
(-477,814,o),
(-379,814,cs),
(-306,814,o),
(-274,772,o),
(-268,772,cs),
(-250,772,o),
(-228,803,o),
(-228,819,cs),
(-228,840,o),
(-299,882,o),
(-379,882,cs),
(-517,882,o),
(-563,766,o),
(-579,629,cs),
(-639,112,l),
(-739,112,ls)
);
},
{
ref = f.alt;
},
{
pos = (330,0);
ref = f;
}
);
width = 660;
}
);
unicode = 64256;
},
{
glyphname = ordfeminine;
layers = (
{
layerId = master01;
shapes = (
{
closed = 1;
nodes = (
(175,534,o),
(155,557,o),
(155,584,cs),
(155,632,o),
(195,668,o),
(323,679,c),
(310,613,o),
(271,534,o),
(207,534,cs)
);
},
{
closed = 1;
nodes = (
(400,850,o),
(338,871,o),
(274,871,cs),
(224,871,o),
(141,845,o),
(141,826,cs),
(141,811,o),
(150,787,o),
(166,787,cs),
(188,787,o),
(210,816,o),
(272,816,cs,{
name = hr01;
}),
(307,816,o),
(337,806,o),
(337,773,cs),
(337,763,o),
(337,746,o),
(334,730,c),
(147,717,o),
(90,647,o),
(90,573,cs),
(90,511,o),
(135,479,o),
(188,479,cs),
(233,479,o),
(283,503,o),
(315,556,c),
(315,521,o),
(319,479,o),
(335,479,cs),
(350,479,o),
(380,488,o),
(380,503,cs),
(380,513,o),
(372,527,o),
(372,565,cs),
(372,606,o),
(380,654,o),
(388,697,cs),
(394,732,o),
(400,762,o),
(400,783,cs)
);
},
{
pos = (4,123);
ref = hyphen;
}
);
width = 470;
}
);
unicode = 170;
},
{
glyphname = ordmasculine;
layers = (
{
layerId = master01;
shapes = (
{
closed = 1;
nodes = (
(100,558,o),
(148,479,o),
(248,479,cs),
(369,479,o),
(447,582,o),
(447,702,cs),
(447,791,o),
(397,871,o),
(298,871,cs),
(157,871,o),
(100,747,o),
(100,646,cs,{
name = hr00;
})
);
},
{
closed = 1;
nodes = (
(165,728,o),
(206,820,o),
(292,820,cs),
(355,820,o),
(383,766,o),
(383,695,cs),
(383,609,o),
(329,531,o),
(254,531,cs),
(192,531,o),
(165,584,o),
(165,654,cs)
);
},
{
pos = (17,123);
ref = hyphen;
}
);
width = 497;
}
);
unicode = 186;
},
{
glyphname = pi;
layers = (
{
layerId = master01;
shapes = (
{
closed = 1;
nodes = (
(596,430,o),
(605,447,o),
(605,464,cs),
(605,479,o),
(596,493,o),
(581,493,cs),
(231,493,ls),
(183,493,o),
(25,489,o),
(25,423,cs),
(25,404,o),
(38,394,o),
(56,394,cs),
(77,394,o),
(93,408,o),
(104,413,cs),
(116,420,o),
(135,424,o),
(157,426,c),
(107,6,l),
(107,-10,o),
(115,-14,o),
(134,-14,cs),
(156,-14,o),
(178,-11,o),
(181,11,cs),
(231,430,l),
(237,430,l),
(415,430,l),
(365,6,l),
(365,-10,o),
(373,-14,o),
(392,-14,cs),
(414,-14,o),
(436,-11,o),
(439,11,cs),
(490,430,l),
(575,430,ls,{
name = hr00;
})
);
}
);
width = 595;
}
);
unicode = 960;
},
{
glyphname = zero;
layers = (
{
layerId = master01;
shapes = (
{
closed = 1;
nodes = (
(104,857,o),
(27,539,o),
(27,328,cs),
(27,151,o),
(90,-14,o),
(294,-14,cs),
(559,-14,o),
(634,302,o),
(634,515,cs),
(634,690,o),
(571,857,o),
(367,857,cs,{
name = hr00;
})
);
},
{
closed = 1;
nodes = (
(141,53,o),
(111,199,o),
(111,321,cs),
(111,490,o),
(166,790,o),
(364,790,cs),
(508,790,o),
(552,653,o),
(552,539,cs),
(552,377,o),
(508,53,o),
(291,53,cs)
);
}
);
width = 672;
}
);
unicode = 48;
},
{
glyphname = one;
layers = (
{
layerId = master01;
shapes = (
{
closed = 1;
nodes = (
(132,66,ls),
(109,66,o),
(93,53,o),
(93,31,cs),
(93,9,o),
(105,0,o),
(128,0,cs),
(531,0,ls),
(554,0,o),
(570,13,o),
(570,35,cs),
(570,57,o),
(558,66,o),
(535,66,cs),
(374,66,l),
(455,757,ls),
(459,789,o),
(462,824,o),
(462,830,cs),
(462,850,o),
(445,860,o),
(422,860,cs),
(347,860,o),
(396,747,o),
(97,552,cs),
(85,544,o),
(76,535,o),
(76,521,cs),
(76,500,o),
(91,490,o),
(112,490,cs),
(164,490,o),
(320,627,o),
(370,701,c),
(293,66,l,{
name = hr00;
})
);
}
);
width = 672;
}
);
unicode = 49;
},
{
glyphname = two;
layers = (
{
layerId = master01;
shapes = (
{
closed = 1;
nodes = (
(52,62,o),
(47,47,o),
(47,35,cs),
(47,17,o),
(59,0,o),
(90,0,cs),
(535,0,ls),
(560,0,o),
(577,11,o),
(577,38,cs),
(577,57,o),
(564,69,o),
(545,69,cs),
(165,69,l),
(306,199,ls),
(433,316,o),
(582,466,o),
(582,640,cs),
(582,776,o),
(484,857,o),
(349,857,cs),
(195,857,o),
(113,763,o),
(113,721,cs),
(113,700,o),
(126,689,o),
(146,689,cs),
(199,689,o),
(212,790,o),
(343,790,cs),
(440,790,o),
(500,731,o),
(500,634,cs),
(500,493,o),
(389,376,o),
(255,251,cs),
(62,71,ls,{
name = hr00;
})
);
}
);
width = 672;
}
);
unicode = 50;
},
{
glyphname = three;
layers = (
{
layerId = master01;
shapes = (
{
closed = 1;
nodes = (
(240,489,o),
(226,480,o),
(226,455,cs),
(226,436,o),
(242,423,o),
(260,423,cs),
(379,423,o),
(489,370,o),
(489,246,cs),
(489,129,o),
(388,57,o),
(270,57,cs),
(181,57,o),
(109,101,o),
(73,183,cs),
(69,195,o),
(60,202,o),
(42,202,cs),
(22,202,o),
(8,189,o),
(8,168,cs),
(8,87,o),
(123,-14,o),
(260,-14,cs),
(438,-14,o),
(571,70,o),
(571,249,cs),
(571,342,o),
(503,431,o),
(416,462,c),
(504,496,o),
(566,570,o),
(566,662,cs),
(566,790,o),
(463,857,o),
(335,857,cs),
(263,857,o),
(186,832,o),
(139,784,cs),
(127,773,o),
(119,759,o),
(119,746,cs),
(119,725,o),
(130,715,o),
(153,715,cs),
(169,715,o),
(185,731,o),
(202,745,cs),
(232,771,o),
(280,790,o),
(329,790,cs),
(416,790,o),
(480,749,o),
(480,662,cs),
(480,548,o),
(359,489,o),
(265,489,cs,{
name = hr00;
})
);
}
);
width = 672;
}
);
unicode = 51;
},
{
glyphname = four;
layers = (
{
layerId = master01;
shapes = (
{
closed = 1;
nodes = (
(494,238,l),
(573,238,ls),
(599,238,o),
(613,251,o),
(613,276,cs),
(613,295,o),
(599,307,o),
(579,307,cs),
(502,307,l),
(562,794,o),
(568,834,o),
(568,836,cs),
(568,856,o),
(553,860,o),
(535,860,cs),
(514,860,o),
(493,855,o),
(490,828,cs),
(459,580,o),
(440,426,o),
(426,307,c),
(125,307,l),
(261,608,ls),
(300,695,o),
(322,752,o),
(322,804,cs),
(322,840,o),
(315,872,o),
(278,872,cs),
(264,872,o),
(247,865,o),
(247,844,cs),
(247,786,o),
(247,758,o),
(193,639,cs),
(44,309,ls),
(39,297,o),
(32,282,o),
(32,269,cs),
(32,249,o),
(44,238,o),
(75,238,cs),
(417,238,l),
(392,32,o),
(391,15,o),
(391,15,c),
(391,-10,o),
(408,-14,o),
(430,-14,cs),
(448,-14,o),
(464,-7,o),
(467,18,c,{
name = hr00;
})
);
}
);
width = 672;
}
);
unicode = 52;
},
{
glyphname = five;
layers = (
{
layerId = master01;
shapes = (
{
closed = 1;
nodes = (
(203,843,o),
(192,833,o),
(186,802,cs),
(131,502,ls),
(130,498,o),
(130,495,o),
(130,491,cs),
(131,463,o),
(160,453,o),
(195,453,cs),
(356,453,o),
(501,419,o),
(501,255,cs),
(501,127,o),
(417,57,o),
(301,57,cs),
(198,57,o),
(145,102,o),
(107,191,cs),
(102,203,o),
(89,213,o),
(76,213,cs),
(51,213,o),
(39,198,o),
(39,177,cs),
(39,79,o),
(147,-14,o),
(298,-14,cs),
(468,-14,o),
(584,83,o),
(584,265,cs),
(584,477,o),
(389,522,o),
(209,522,c),
(256,777,l),
(550,777,ls),
(575,777,o),
(589,790,o),
(589,815,cs),
(589,834,o),
(573,843,o),
(555,843,cs),
(234,843,ls,{
name = hr00;
})
);
}
);
width = 672;
}
);
unicode = 53;
},
{
glyphname = six;
layers = (
{
layerId = master01;
shapes = (
{
closed = 1;
nodes = (
(134,349,o),
(136,381,o),
(139,413,c),
(144,405,o),
(154,402,o),
(164,402,cs),
(193,402,o),
(246,459,o),
(335,459,cs),
(449,459,o),
(503,392,o),
(503,280,cs),
(503,162,o),
(442,53,o),
(312,53,cs),
(167,53,o),
(134,197,o),
(134,316,cs,{
name = hr00;
})
);
},
{
closed = 1;
nodes = (
(276,529,o),
(183,498,o),
(141,451,c),
(160,602,o),
(214,790,o),
(399,790,cs),
(510,790,o),
(539,720,o),
(575,720,cs),
(595,720,o),
(609,731,o),
(609,750,cs),
(609,767,o),
(602,776,o),
(587,791,cs),
(542,836,o),
(465,857,o),
(400,857,cs),
(111,857,o),
(49,545,o),
(49,314,cs),
(49,146,o),
(113,-14,o),
(305,-14,cs),
(483,-14,o),
(587,108,o),
(587,286,cs),
(587,438,o),
(494,529,o),
(342,529,cs)
);
}
);
width = 672;
}
);
unicode = 54;
},
{
glyphname = seven;
layers = (
{
layerId = master01;
shapes = (
{
closed = 1;
nodes = (
(113,843,o),
(99,830,o),
(99,805,cs),
(99,786,o),
(113,774,o),
(133,774,cs),
(509,774,l),
(250,250,ls),
(208,165,o),
(189,96,o),
(189,44,cs),
(189,8,o),
(196,-14,o),
(233,-14,cs),
(247,-14,o),
(264,-7,o),
(264,14,cs),
(264,72,o),
(265,102,o),
(323,219,cs),
(597,772,ls),
(602,784,o),
(609,799,o),
(609,812,cs),
(609,832,o),
(597,843,o),
(566,843,cs),
(139,843,ls,{
name = hr00;
})
);
}
);
width = 672;
}
);
unicode = 55;
},
{
glyphname = eight;
layers = (
{
layerId = master01;
shapes = (
{
closed = 1;
nodes = (
(546,479,o),
(616,550,o),
(616,658,cs),
(616,788,o),
(492,857,o),
(377,857,cs),
(231,857,o),
(116,781,o),
(116,638,cs),
(116,553,o),
(153,498,o),
(226,455,c),
(110,416,o),
(42,333,o),
(42,209,cs,{
name = hr01;
}),
(42,59,o),
(171,-14,o),
(307,-14,cs),
(470,-14,o),
(594,66,o),
(594,239,cs),
(594,330,o),
(528,406,o),
(449,445,c)
);
},
{
closed = 1;
nodes = (
(533,553,o),
(444,507,o),
(356,487,c),
(277,507,o),
(199,553,o),
(199,643,cs),
(199,718,o),
(260,789,o),
(362,789,cs),
(500,789,o),
(533,712,o),
(533,655,cs,{
name = hr02;
})
);
},
{
closed = 1;
nodes = (
(508,118,o),
(417,50,o),
(307,50,cs),
(205,50,o),
(124,109,o),
(124,221,cs),
(124,319,o),
(203,395,o),
(323,412,c),
(414,401,o),
(508,326,o),
(508,234,cs,{
name = hr03;
})
);
}
);
width = 672;
}
);
unicode = 56;
},
{
glyphname = nine;
layers = (
{
layerId = master01;
shapes = (
{
closed = 1;
nodes = (
(524,494,o),
(522,462,o),
(519,430,c),
(514,438,o),
(503,444,o),
(493,444,cs),
(463,444,o),
(412,384,o),
(323,384,cs),
(209,384,o),
(154,451,o),
(154,563,cs),
(154,680,o),
(214,790,o),
(344,790,cs),
(491,790,o),
(524,645,o),
(524,526,cs,{
name = hr00;
})
);
},
{
closed = 1;
nodes = (
(382,312,o),
(483,347,o),
(517,392,c),
(498,241,o),
(444,53,o),
(259,53,cs),
(148,53,o),
(118,127,o),
(85,127,cs),
(66,127,o),
(50,116,o),
(50,97,cs),
(50,77,o),
(59,66,o),
(73,52,cs),
(119,6,o),
(193,-14,o),
(258,-14,cs),
(547,-14,o),
(609,298,o),
(609,529,cs),
(609,697,o),
(545,857,o),
(353,857,cs),
(175,857,o),
(70,735,o),
(70,557,cs),
(70,405,o),
(164,312,o),
(316,312,cs)
);
}
);
width = 672;
}
);
unicode = 57;
},
{
glyphname = fraction;
layers = (
{
layerId = master01;
shapes = (
{
closed = 1;
nodes = (
(418,868,o),
(420,876,o),
(420,879,cs),
(420,890,o),
(408,896,o),
(393,896,cs),
(369,896,o),
(351,892,o),
(344,870,cs),
(85,-5,ls),
(81,-17,o),
(80,-22,o),
(80,-24,cs),
(80,-35,o),
(88,-38,o),
(104,-38,cs),
(126,-38,o),
(149,-35,o),
(156,-13,cs),
(415,858,ls,{
name = hr00;
})
);
}
);
width = 482;
}
);
unicode = 8260;
},
{
glyphname = zeroinferior;
layers = (
{
layerId = master01;
shapes = (
{
closed = 1;
nodes = (
(86,321,o),
(39,129,o),
(39,2,cs),
(39,-107,o),
(78,-208,o),
(204,-208,cs),
(367,-208,o),
(413,-18,o),
(413,111,cs),
(413,219,o),
(375,321,o),
(248,321,cs,{
name = hr00;
})
);
},
{
closed = 1;
nodes = (
(122,-151,o),
(106,-71,o),
(106,-2,cs),
(106,94,o),
(137,264,o),
(246,264,cs),
(324,264,o),
(347,189,o),
(347,125,cs),
(347,33,o),
(323,-151,o),
(203,-151,cs)
);
}
);
width = 463;
}
);
unicode = 8320;
},
{
glyphname = oneinferior;
layers = (
{
layerId = master01;
shapes = (
{
closed = 1;
nodes = (
(109,-143,ls),
(91,-143,o),
(78,-154,o),
(78,-173,cs),
(78,-193,o),
(88,-200,o),
(107,-200,cs),
(344,-200,ls),
(362,-200,o),
(376,-189,o),
(376,-171,cs),
(376,-152,o),
(366,-143,o),
(346,-143,cs),
(261,-143,l),
(308,253,ls),
(310,271,o),
(312,292,o),
(312,297,cs),
(312,314,o),
(298,323,o),
(280,323,cs),
(256,323,o),
(250,312,o),
(238,290,cs),
(220,259,o),
(189,207,o),
(84,140,cs),
(75,134,o),
(68,127,o),
(68,115,cs),
(68,97,o),
(81,88,o),
(98,88,cs),
(124,88,o),
(197,148,o),
(238,193,c),
(197,-143,l,{
name = hr00;
})
);
}
);
width = 463;
}
);
unicode = 8321;
},
{
glyphname = twoinferior;
layers = (
{
layerId = master01;
shapes = (
{
closed = 1;
nodes = (
(54,-151,o),
(51,-162,o),
(51,-171,cs),
(51,-186,o),
(59,-200,o),
(85,-200,cs),
(346,-200,ls),
(366,-200,o),
(380,-190,o),
(380,-169,cs),
(380,-153,o),
(368,-142,o),
(352,-142,cs),
(151,-142,l),
(218,-81,ls),
(294,-12,o),
(383,79,o),
(383,185,cs),
(383,271,o),
(321,321,o),
(237,321,cs),
(141,321,o),
(90,260,o),
(90,233,cs),
(90,214,o),
(101,205,o),
(118,205,cs),
(133,205,o),
(145,215,o),
(155,227,cs),
(171,244,o),
(191,264,o),
(234,264,cs,{
name = hr01;
}),
(285,264,o),
(317,233,o),
(317,181,cs),
(317,103,o),
(252,35,o),
(176,-36,cs),
(62,-143,l)
);
}
);
width = 463;
}
);
unicode = 8322;
},
{
glyphname = threeinferior;
layers = (
{
layerId = master01;
shapes = (
{
closed = 1;
nodes = (
(167,102,o),
(156,94,o),
(156,74,cs),
(156,61,o),
(169,52,o),
(184,52,cs),
(241,52,o),
(310,20,o),
(310,-46,cs),
(310,-110,o),
(255,-149,o),
(190,-149,cs),
(141,-149,o),
(101,-125,o),
(83,-80,cs),
(79,-70,o),
(72,-64,o),
(56,-64,cs),
(40,-64,o),
(28,-76,o),
(28,-92,cs),
(28,-144,o),
(99,-208,o),
(185,-208,cs),
(294,-208,o),
(377,-156,o),
(377,-45,cs),
(377,7,o),
(332,68,o),
(287,81,c),
(332,96,o),
(374,148,o),
(374,198,cs),
(374,279,o),
(309,321,o),
(229,321,cs),
(171,321,o),
(93,286,o),
(93,248,cs),
(93,229,o),
(102,220,o),
(118,220,cs),
(142,220,o),
(164,264,o),
(225,264,cs,{
name = hr01;
}),
(272,264,o),
(305,243,o),
(305,198,cs),
(305,137,o),
(231,102,o),
(186,102,cs)
);
}
);
width = 463;
}
);
unicode = 8323;
},
{
glyphname = fourinferior;
layers = (
{
layerId = master01;
shapes = (
{
closed = 1;
nodes = (
(377,-68,ls),
(397,-68,o),
(409,-57,o),
(409,-37,cs),
(409,-21,o),
(396,-10,o),
(380,-10,cs),
(345,-10,l),
(371,206,o),
(380,270,o),
(383,291,cs),
(384,298,o),
(384,301,o),
(384,301,cs),
(384,320,o),
(371,323,o),
(355,323,cs),
(339,323,o),
(323,318,o),
(320,297,cs),
(283,-10,l),
(126,-10,l),
(199,155,ls),
(223,208,o),
(236,242,o),
(236,274,cs),
(236,301,o),
(232,323,o),
(201,323,cs),
(189,323,o),
(175,317,o),
(175,298,cs),
(175,265,o),
(174,250,o),
(143,181,cs),
(58,-14,ls),
(55,-22,o),
(50,-33,o),
(50,-41,cs),
(50,-59,o),
(58,-68,o),
(84,-68,cs),
(275,-68,l),
(260,-189,o),
(262,-182,o),
(262,-182,cs),
(262,-205,o),
(276,-208,o),
(294,-208,cs),
(309,-208,o),
(321,-202,o),
(324,-181,cs),
(338,-68,l,{
name = hr00;
})
);
}
);
width = 463;
}
);
unicode = 8324;
},
{
glyphname = fiveinferior;
layers = (
{
layerId = master01;
shapes = (
{
closed = 1;
nodes = (
(146,313,o),
(137,305,o),
(133,282,cs),
(103,122,ls),
(100,104,o),
(100,98,o),
(100,96,cs),
(100,73,o),
(112,66,o),
(147,66,cs),
(237,66,o),
(318,48,o),
(318,-41,cs),
(318,-111,o),
(272,-149,o),
(209,-149,cs),
(152,-149,o),
(123,-125,o),
(102,-75,cs),
(99,-65,o),
(87,-57,o),
(77,-57,cs),
(56,-57,o),
(46,-70,o),
(46,-87,cs),
(46,-150,o),
(113,-208,o),
(207,-208,cs),
(312,-208,o),
(384,-148,o),
(384,-35,cs),
(384,91,o),
(272,122,o),
(165,124,c),
(174,173,o),
(182,208,o),
(191,256,c),
(355,256,ls),
(376,256,o),
(387,267,o),
(387,288,cs),
(387,304,o),
(374,313,o),
(358,313,cs),
(169,313,l,{
name = hr00;
})
);
}
);
width = 463;
}
);
unicode = 8325;
},
{
glyphname = sixinferior;
layers = (
{
layerId = master01;
shapes = (
{
closed = 1;
nodes = (
(119,8,o),
(120,19,o),
(121,37,c),
(146,56,o),
(191,69,o),
(229,69,cs),
(290,69,o),
(319,33,o),
(319,-27,cs),
(319,-91,o),
(286,-151,o),
(215,-151,cs),
(137,-151,o),
(119,-72,o),
(119,-5,cs)
);
},
{
closed = 1;
nodes = (
(200,128,o),
(157,117,o),
(128,97,c),
(141,176,o),
(173,264,o),
(266,264,cs),
(332,264,o),
(343,223,o),
(370,223,cs,{
name = hr01;
}),
(387,223,o),
(398,233,o),
(398,250,cs),
(398,261,o),
(393,269,o),
(383,280,cs),
(354,308,o),
(307,321,o),
(267,321,cs),
(91,321,o),
(52,133,o),
(52,-7,cs),
(52,-110,o),
(92,-208,o),
(211,-208,cs),
(322,-208,o),
(386,-132,o),
(386,-23,cs),
(386,72,o),
(328,128,o),
(233,128,cs)
);
}
);
width = 463;
}
);
unicode = 8326;
},
{
glyphname = seveninferior;
layers = (
{
layerId = master01;
shapes = (
{
closed = 1;
nodes = (
(93,313,o),
(81,302,o),
(81,282,cs),
(81,266,o),
(94,254,o),
(111,254,cs),
(316,254,l),
(171,-40,ls),
(146,-92,o),
(134,-134,o),
(134,-166,cs),
(134,-192,o),
(141,-208,o),
(169,-208,cs),
(209,-208,o),
(181,-166,o),
(230,-67,cs),
(391,258,ls),
(395,266,o),
(399,277,o),
(399,286,cs),
(399,303,o),
(389,313,o),
(365,313,cs),
(113,313,ls,{
name = hr00;
})
);
}
);
width = 463;
}
);
unicode = 8327;
},
{
glyphname = eightinferior;
layers = (
{
layerId = master01;
shapes = (
{
closed = 1;
nodes = (
(403,278,o),
(325,321,o),
(253,321,cs),
(163,321,o),
(92,274,o),
(92,184,cs),
(92,136,o),
(118,104,o),
(155,78,c),
(91,53,o),
(48,4,o),
(48,-69,cs,{
name = hr01;
}),
(48,-163,o),
(128,-208,o),
(212,-208,cs),
(313,-208,o),
(390,-158,o),
(390,-51,cs),
(390,0,o),
(358,43,o),
(307,68,c),
(358,92,o),
(403,134,o),
(403,196,cs)
);
},
{
closed = 1;
nodes = (
(337,141,o),
(289,110,o),
(242,100,c),
(200,110,o),
(157,140,o),
(157,187,cs),
(157,226,o),
(191,263,o),
(245,263,cs),
(319,263,o),
(337,223,o),
(337,194,cs)
);
},
{
closed = 1;
nodes = (
(322,-116,o),
(272,-153,o),
(212,-153,cs),
(157,-153,o),
(113,-122,o),
(113,-61,cs),
(113,-11,o),
(161,35,o),
(223,47,c),
(271,41,o),
(322,-5,o),
(322,-54,cs,{
name = hr03;
})
);
}
);
width = 463;
}
);
unicode = 8328;
},
{
glyphname = nineinferior;
layers = (
{
layerId = master01;
shapes = (
{
closed = 1;
nodes = (
(331,105,o),
(331,91,o),
(330,77,c),
(297,52,o),
(249,43,o),
(222,43,cs),
(160,43,o),
(131,80,o),
(131,140,cs),
(131,204,o),
(163,264,o),
(234,264,cs),
(314,264,o),
(331,184,o),
(331,118,cs)
);
},
{
closed = 1;
nodes = (
(249,-17,o),
(295,-3,o),
(323,16,c),
(309,-63,o),
(277,-151,o),
(184,-151,cs),
(124,-151,o),
(104,-108,o),
(82,-108,cs,{
name = hr01;
}),
(66,-108,o),
(53,-117,o),
(53,-134,cs),
(53,-149,o),
(58,-156,o),
(69,-167,cs),
(98,-195,o),
(144,-208,o),
(184,-208,cs),
(360,-208,o),
(398,-20,o),
(398,119,cs),
(398,223,o),
(359,321,o),
(240,321,cs),
(129,321,o),
(64,246,o),
(64,136,cs),
(64,41,o),
(122,-17,o),
(218,-17,cs)
);
}
);
width = 463;
}
);
unicode = 8329;
},
{
glyphname = period;
layers = (
{
layerId = master01;
shapes = (
{
closed = 1;
nodes = (
(152,69,o),
(142,85,o),
(107,85,cs),
(61,85,o),
(50,55,o),
(50,24,cs),
(50,3,o),
(60,-14,o),
(95,-14,cs),
(141,-14,o),
(152,17,o),
(152,48,cs,{
name = hr00;
})
);
}
);
width = 202;
}
);
unicode = 46;
},
{
glyphname = comma;
layers = (
{
layerId = master01;
shapes = (
{
closed = 1;
nodes = (
(82,-202,o),
(105,-199,o),
(112,-178,cs),
(166,-17,o),
(181,32,o),
(181,53,cs),
(181,75,o),
(161,83,o),
(143,83,cs),
(124,83,o),
(98,79,o),
(92,44,cs),
(56,-152,o),
(50,-179,o),
(50,-184,cs),
(50,-198,o),
(57,-202,o),
(73,-202,cs,{
name = hr00;
})
);
}
);
width = 231;
}
);
unicode = 44;
},
{
glyphname = colon;
layers = (
{
layerId = master01;
shapes = (
{
closed = 1;
nodes = (
(152,69,o),
(142,85,o),
(107,85,cs),
(61,85,o),
(50,55,o),
(50,24,cs),
(50,3,o),
(60,-14,o),
(95,-14,cs),
(141,-14,o),
(152,17,o),
(152,48,cs,{
name = hr00;
})
);
},
{
closed = 1;
nodes = (
(195,423,o),
(185,439,o),
(150,439,cs),
(104,439,o),
(93,409,o),
(93,378,cs),
(93,357,o),
(103,340,o),
(138,340,cs),
(184,340,o),
(195,371,o),
(195,402,cs)
);
}
);
width = 202;
}
);
unicode = 58;
},
{
glyphname = semicolon;
layers = (
{
layerId = master01;
shapes = (
{
closed = 1;
nodes = (
(195,423,o),
(185,439,o),
(150,439,cs),
(104,439,o),
(93,409,o),
(93,378,cs),
(93,357,o),
(103,340,o),
(138,340,cs),
(184,340,o),
(195,371,o),
(195,402,cs,{
name = hr00;
})
);
},
{
pos = (-34,0);
ref = comma;
}
);
width = 202;
}
);
unicode = 59;
},
{
glyphname = ellipsis;
layers = (
{
layerId = master01;
shapes = (
{
closed = 1;
nodes = (
(152,69,o),
(142,85,o),
(107,85,cs),
(61,85,o),
(50,55,o),
(50,24,cs),
(50,3,o),
(60,-14,o),
(95,-14,cs),
(141,-14,o),
(152,17,o),
(152,48,cs,{
name = hr00;
})
);
},
{
closed = 1;
nodes = (
(354,69,o),
(344,85,o),
(309,85,cs),
(263,85,o),
(252,55,o),
(252,24,cs),
(252,3,o),
(262,-14,o),
(297,-14,cs),
(343,-14,o),
(354,17,o),
(354,48,cs)
);
},
{
closed = 1;
nodes = (
(556,69,o),
(546,85,o),
(511,85,cs),
(465,85,o),
(454,55,o),
(454,24,cs),
(454,3,o),
(464,-14,o),
(499,-14,cs),
(545,-14,o),
(556,17,o),
(556,48,cs)
);
}
);
width = 606;
}
);
unicode = 8230;
},
{
glyphname = exclam;
layers = (
{
layerId = master01;
shapes = (
{
closed = 1;
nodes = (
(139,185,o),
(162,188,o),
(165,209,cs),
(244,752,ls),
(247,773,o),
(249,790,o),
(249,795,cs),
(249,820,o),
(225,827,o),
(207,827,cs),
(188,827,o),
(163,823,o),
(160,788,cs),
(104,222,ls),
(103,213,o),
(103,207,o),
(103,203,cs),
(103,187,o),
(117,185,o),
(128,185,cs,{
name = hr00;
})
);
},
{
closed = 1;
nodes = (
(161,69,o),
(151,85,o),
(116,85,cs),
(70,85,o),
(59,55,o),
(59,24,cs),
(59,3,o),
(69,-14,o),
(104,-14,cs),
(150,-14,o),
(161,17,o),
(161,48,cs)
);
}
);
width = 295;
}
);
unicode = 33;
},
{
glyphname = exclamdown;
layers = (
{
layerId = master01;
shapes = (
{
closed = 1;
nodes = (
(150,291,o),
(133,288,o),
(130,267,cs),
(47,-312,ls),
(43,-343,o),
(70,-351,o),
(89,-351,cs),
(109,-351,o),
(134,-347,o),
(137,-312,cs),
(192,267,ls),
(193,288,o),
(172,291,o),
(161,291,cs,{
name = hr00;
})
);
},
{
closed = 1;
nodes = (
(231,466,o),
(207,490,o),
(178,490,cs),
(148,490,o),
(123,466,o),
(123,437,cs),
(123,407,o),
(148,382,o),
(178,382,cs),
(207,382,o),
(231,407,o),
(231,437,cs)
);
}
);
width = 290;
}
);
unicode = 161;
},
{
glyphname = question;
layers = (
{
layerId = master01;
shapes = (
{
closed = 1;
nodes = (
(112,10,o),
(136,-14,o),
(165,-14,cs),
(195,-14,o),
(220,10,o),
(220,39,cs),
(220,69,o),
(195,94,o),
(165,94,cs),
(136,94,o),
(112,69,o),
(112,39,cs,{
name = hr00;
})
);
},
{
closed = 1;
nodes = (
(246,442,o),
(459,476,o),
(459,645,cs),
(459,763,o),
(368,826,o),
(263,826,cs),
(146,826,o),
(64,727,o),
(64,687,cs),
(64,664,o),
(77,652,o),
(99,652,cs),
(137,652,o),
(155,757,o),
(258,757,cs),
(332,757,o),
(381,715,o),
(381,641,cs),
(381,501,o),
(175,468,o),
(160,308,cs),
(150,210,ls),
(148,189,o),
(167,185,o),
(181,185,cs),
(190,185,o),
(209,188,o),
(211,209,cs),
(225,304,ls)
);
}
);
width = 511;
}
);
unicode = 63;
},
{
glyphname = questiondown;
layers = (
{
layerId = master01;
shapes = (
{
closed = 1;
nodes = (
(399,466,o),
(375,490,o),
(346,490,cs),
(316,490,o),
(291,466,o),
(291,437,cs),
(291,407,o),
(316,382,o),
(346,382,cs),
(375,382,o),
(399,407,o),
(399,437,cs,{
name = hr00;
})
);
},
{
closed = 1;
nodes = (
(265,34,o),
(52,0,o),
(52,-169,cs),
(52,-287,o),
(143,-350,o),
(248,-350,cs),
(365,-350,o),
(447,-251,o),
(447,-211,cs),
(447,-188,o),
(434,-176,o),
(412,-176,cs),
(374,-176,o),
(356,-281,o),
(253,-281,cs),
(179,-281,o),
(130,-239,o),
(130,-165,cs),
(130,-25,o),
(336,8,o),
(351,168,cs),
(361,266,ls),
(363,287,o),
(344,291,o),
(330,291,cs),
(321,291,o),
(302,288,o),
(300,267,cs),
(286,172,ls)
);
}
);
width = 511;
}
);
unicode = 191;
},
{
glyphname = asterisk;
layers = (
{
layerId = master01;
shapes = (
{
closed = 1;
nodes = (
(346,739,o),
(347,750,o),
(347,751,cs),
(347,779,o),
(324,785,o),
(309,785,cs),
(290,785,o),
(269,780,o),
(269,749,cs),
(269,748,o),
(271,711,o),
(273,689,cs),
(279,612,l),
(147,666,ls),
(144,667,o),
(141,667,o),
(137,667,cs),
(114,667,o),
(100,638,o),
(100,623,cs),
(100,607,o),
(105,594,o),
(131,587,cs),
(260,554,l),
(168,444,ls),
(163,438,o),
(162,432,o),
(162,427,cs),
(162,405,o),
(184,384,o),
(207,384,cs),
(219,384,o),
(226,386,o),
(237,403,cs),
(310,516,l),
(386,396,ls),
(391,387,o),
(400,383,o),
(410,383,cs,{
name = hr01;
}),
(432,383,o),
(456,402,o),
(456,426,cs),
(456,436,o),
(453,440,o),
(448,446,cs),
(360,553,l),
(498,587,ls),
(513,591,o),
(520,605,o),
(520,618,cs),
(520,639,o),
(508,663,o),
(483,663,cs),
(478,663,o),
(472,662,o),
(467,660,cs),
(341,613,l)
);
}
);
width = 570;
}
);
unicode = 42;
},
{
glyphname = numbersign;
layers = (
{
layerId = master01;
shapes = (
{
closed = 1;
nodes = (
(125,569,o),
(112,552,o),
(112,534,cs),
(112,519,o),
(119,503,o),
(133,503,cs),
(255,503,l),
(221,340,l),
(94,340,ls),
(76,340,o),
(65,320,o),
(65,302,cs),
(65,288,o),
(72,274,o),
(86,274,cs),
(207,274,l),
(154,19,ls),
(152,7,o),
(151,2,o),
(151,0,cs),
(152,-11,o),
(160,-14,o),
(176,-14,cs),
(198,-14,o),
(221,-11,o),
(226,11,cs),
(281,274,l),
(487,274,l),
(434,19,ls),
(432,7,o),
(431,2,o),
(431,0,cs),
(432,-11,o),
(440,-14,o),
(456,-14,cs),
(478,-14,o),
(501,-11,o),
(506,11,cs),
(561,274,l),
(687,274,ls),
(709,274,o),
(718,295,o),
(718,311,cs),
(718,326,o),
(709,340,o),
(696,340,cs),
(575,340,l),
(609,503,l),
(737,503,ls),
(753,503,o),
(766,522,o),
(766,538,cs),
(766,554,o),
(758,569,o),
(739,569,cs),
(623,569,l),
(676,819,ls),
(678,829,o),
(679,837,o),
(679,840,cs),
(678,851,o),
(666,857,o),
(651,857,cs),
(627,857,o),
(609,853,o),
(604,831,cs),
(549,569,l),
(343,569,l),
(396,819,ls),
(398,829,o),
(399,837,o),
(399,840,cs),
(398,851,o),
(386,857,o),
(371,857,cs),
(347,857,o),
(329,853,o),
(324,831,cs),
(269,569,l),
(142,569,ls,{
name = hr00;
})
);
},
{
closed = 1;
nodes = (
(535,503,l),
(501,340,l),
(295,340,l),
(329,503,l)
);
}
);
width = 831;
}
);
unicode = 35;
},
{
glyphname = slash;
layers = (
{
layerId = master01;
shapes = (
{
closed = 1;
nodes = (
(418,868,o),
(420,876,o),
(420,879,cs),
(420,890,o),
(408,896,o),
(393,896,cs),
(369,896,o),
(351,892,o),
(344,870,cs),
(85,-5,ls),
(81,-17,o),
(80,-22,o),
(80,-24,cs),
(80,-35,o),
(88,-38,o),
(104,-38,cs),
(126,-38,o),
(149,-35,o),
(156,-13,cs),
(415,858,ls,{
name = hr00;
})
);
}
);
width = 482;
}
);
unicode = 47;
},
{
glyphname = hyphen;
layers = (
{
layerId = master01;
shapes = (
{
closed = 1;
nodes = (
(75,297,o),
(68,279,o),
(68,264,cs),
(68,251,o),
(75,239,o),
(87,239,cs),
(361,239,ls),
(378,239,o),
(388,254,o),
(388,269,cs),
(388,283,o),
(380,297,o),
(365,297,cs),
(94,297,ls,{
name = hr00;
})
);
}
);
width = 458;
}
);
unicode = 45;
},
{
glyphname = endash;
layers = (
{
layerId = master01;
shapes = (
{
closed = 1;
nodes = (
(7,297,o),
(0,280,o),
(0,265,cs),
(0,252,o),
(6,239,o),
(18,239,cs),
(554,239,ls),
(573,239,o),
(581,255,o),
(581,270,cs),
(581,283,o),
(573,297,o),
(559,297,cs),
(25,297,ls,{
name = hr00;
})
);
}
);
width = 580;
}
);
unicode = 8211;
},
{
glyphname = emdash;
layers = (
{
layerId = master01;
shapes = (
{
closed = 1;
nodes = (
(7,297,o),
(0,280,o),
(0,265,cs),
(0,252,o),
(6,239,o),
(18,239,cs),
(813,239,ls),
(832,239,o),
(840,255,o),
(840,270,cs),
(840,283,o),
(832,297,o),
(818,297,cs),
(25,297,ls,{
name = hr00;
})
);
}
);
width = 839;
}
);
unicode = 8212;
},
{
glyphname = underscore;
layers = (
{
layerId = master01;
shapes = (
{
closed = 1;
nodes = (
(7,-30,o),
(0,-47,o),
(0,-62,cs),
(0,-75,o),
(6,-88,o),
(18,-88,cs),
(454,-88,ls),
(473,-88,o),
(481,-72,o),
(481,-57,cs),
(481,-44,o),
(473,-30,o),
(459,-30,cs),
(25,-30,ls,{
name = hr00;
})
);
}
);
width = 481;
}
);
unicode = 95;
},
{
glyphname = parenleft;
layers = (
{
layerId = master01;
shapes = (
{
closed = 1;
nodes = (
(180,-34,o),
(149,135,o),
(149,301,cs),
(149,537,o),
(222,877,o),
(402,877,cs),
(425,877,o),
(434,894,o),
(434,912,cs),
(434,937,o),
(420,947,o),
(402,947,cs),
(172,947,o),
(69,595,o),
(69,299,cs),
(69,83,o),
(119,-104,o),
(282,-104,cs),
(302,-104,o),
(317,-91,o),
(317,-70,cs),
(317,-49,o),
(308,-34,o),
(283,-34,cs,{
name = hr00;
})
);
}
);
width = 434;
}
);
unicode = 40;
},
{
glyphname = braceleft;
layers = (
{
layerId = master01;
shapes = (
{
closed = 1;
nodes = (
(82,131,o),
(78,91,o),
(78,55,cs),
(78,-35,o),
(104,-104,o),
(219,-104,cs),
(288,-104,o),
(344,-84,o),
(344,-43,cs),
(344,-28,o),
(334,-17,o),
(316,-17,cs),
(295,-17,o),
(278,-35,o),
(231,-35,cs,{
name = hr01;
}),
(170,-35,o),
(155,9,o),
(155,65,cs),
(155,134,o),
(184,317,o),
(184,352,cs),
(184,392,o),
(167,414,o),
(139,420,c),
(140,424,l),
(178,431,o),
(197,456,o),
(201,493,cs),
(223,688,ls),
(233,779,o),
(244,878,o),
(335,878,cs),
(382,878,o),
(396,860,o),
(417,860,cs,{
name = hr02;
}),
(439,860,o),
(452,876,o),
(452,898,cs),
(452,931,o),
(400,947,o),
(340,947,cs),
(179,947,o),
(160,810,o),
(144,672,cs),
(119,456,l),
(33,456,ls),
(18,456,o),
(5,443,o),
(5,422,cs),
(5,401,o),
(15,391,o),
(32,391,cs),
(112,391,l),
(87,171,ls)
);
}
);
width = 434;
}
);
unicode = 123;
},
{
glyphname = bracketleft;
layers = (
{
layerId = master01;
shapes = (
{
closed = 1;
nodes = (
(182,937,o),
(174,927,o),
(172,911,cs),
(60,-63,l),
(60,-68,ls),
(60,-84,o),
(71,-94,o),
(92,-94,cs),
(293,-94,ls),
(308,-94,o),
(321,-81,o),
(321,-60,cs),
(321,-39,o),
(311,-29,o),
(294,-29,cs),
(141,-29,l),
(245,872,l),
(406,872,ls),
(421,872,o),
(434,885,o),
(434,906,cs),
(434,927,o),
(424,937,o),
(407,937,cs),
(203,937,ls,{
name = hr00;
})
);
}
);
width = 434;
}
);
unicode = 91;
},
{
glyphname = quotedblleft;
layers = (
{
layerId = master01;
shapes = (
{
closed = 1;
nodes = (
(149,822,o),
(126,819,o),
(119,798,cs),
(65,637,o),
(50,588,o),
(50,567,cs),
(50,545,o),
(70,537,o),
(88,537,cs),
(107,537,o),
(133,541,o),
(139,576,cs),
(175,772,o),
(181,799,o),
(181,804,cs),
(181,818,o),
(174,822,o),
(158,822,cs,{
name = hr00;
})
);
},
{
closed = 1;
nodes = (
(317,822,o),
(294,819,o),
(287,798,cs),
(233,637,o),
(218,588,o),
(218,567,cs),
(218,545,o),
(238,537,o),
(256,537,cs),
(275,537,o),
(301,541,o),
(307,576,cs),
(343,772,o),
(349,799,o),
(349,804,cs),
(349,818,o),
(342,822,o),
(326,822,cs)
);
}
);
width = 389;
}
);
unicode = 8220;
},
{
glyphname = quotedblright;
layers = (
{
layerId = master01;
shapes = (
{
closed = 1;
nodes = (
(300,537,o),
(323,540,o),
(330,561,cs),
(384,722,o),
(399,771,o),
(399,792,cs),
(399,814,o),
(379,822,o),
(361,822,cs),
(342,822,o),
(316,818,o),
(310,783,cs),
(274,587,o),
(268,560,o),
(268,555,cs),
(268,541,o),
(275,537,o),
(291,537,cs,{
name = hr00;
})
);
},
{
closed = 1;
nodes = (
(132,537,o),
(155,540,o),
(162,561,cs),
(216,722,o),
(231,771,o),
(231,792,cs),
(231,814,o),
(211,822,o),
(193,822,cs),
(174,822,o),
(148,818,o),
(142,783,cs),
(106,587,o),
(100,560,o),
(100,555,cs),
(100,541,o),
(107,537,o),
(123,537,cs)
);
}
);
width = 399;
}
);
unicode = 8221;
},
{
glyphname = quoteleft;
layers = (
{
layerId = master01;
shapes = (
{
closed = 1;
nodes = (
(149,822,o),
(126,819,o),
(119,798,cs),
(65,637,o),
(50,588,o),
(50,567,cs),
(50,545,o),
(70,537,o),
(88,537,cs),
(107,537,o),
(133,541,o),
(139,576,cs),
(175,772,o),
(181,799,o),
(181,804,cs),
(181,818,o),
(174,822,o),
(158,822,cs,{
name = hr00;
})
);
}
);
width = 221;
}
);
unicode = 8216;
},
{
glyphname = quoteright;
layers = (
{
layerId = master01;
shapes = (
{
closed = 1;
nodes = (
(132,537,o),
(155,540,o),
(162,561,cs),
(216,722,o),
(231,771,o),
(231,792,cs),
(231,814,o),
(211,822,o),
(193,822,cs),
(174,822,o),
(148,818,o),
(142,783,cs),
(106,587,o),
(100,560,o),
(100,555,cs),
(100,541,o),
(107,537,o),
(123,537,cs,{
name = hr00;
})
);
}
);
width = 231;
}
);
unicode = 8217;
},
{
glyphname = guillemotleft;
layers = (
{
layerId = master01;
shapes = (
{
closed = 1;
nodes = (
(314,446,ls),
(316,448,o),
(319,454,o),
(319,459,cs),
(319,475,o),
(307,496,o),
(285,496,cs),
(284,496,o),
(276,496,o),
(267,487,cs),
(81,318,ls),
(70,308,o),
(65,294,o),
(65,277,cs),
(65,266,o),
(67,252,o),
(86,230,cs),
(221,75,ls),
(224,71,o),
(229,69,o),
(235,69,cs),
(253,69,o),
(270,91,o),
(270,109,cs),
(270,117,o),
(267,123,o),
(262,130,cs),
(156,277,l),
(156,284,l,{
name = hr00;
})
);
},
{
closed = 1;
nodes = (
(514,446,ls),
(516,448,o),
(519,454,o),
(519,459,cs),
(519,475,o),
(507,496,o),
(485,496,cs),
(484,496,o),
(476,496,o),
(467,487,cs),
(281,318,ls),
(270,308,o),
(265,294,o),
(265,277,cs),
(265,266,o),
(267,252,o),
(286,230,cs),
(421,75,ls),
(424,71,o),
(429,69,o),
(435,69,cs),
(453,69,o),
(470,91,o),
(470,109,cs),
(470,117,o),
(467,123,o),
(462,130,cs),
(356,277,l),
(356,284,l)
);
}
);
width = 554;
}
);
unicode = 171;
},
{
glyphname = guillemotright;
layers = (
{
layerId = master01;
shapes = (
{
closed = 1;
nodes = (
(270,119,ls),
(268,117,o),
(265,111,o),
(265,106,cs),
(265,90,o),
(277,69,o),
(299,69,cs),
(300,69,o),
(308,69,o),
(317,78,cs),
(503,247,ls),
(514,257,o),
(519,271,o),
(519,288,cs),
(519,299,o),
(517,313,o),
(498,335,cs),
(363,490,ls),
(360,494,o),
(355,496,o),
(349,496,cs),
(331,496,o),
(314,474,o),
(314,456,cs),
(314,448,o),
(317,442,o),
(322,435,cs),
(428,288,l),
(428,281,l,{
name = hr00;
})
);
},
{
closed = 1;
nodes = (
(70,119,ls),
(68,117,o),
(65,111,o),
(65,106,cs),
(65,90,o),
(77,69,o),
(99,69,cs),
(100,69,o),
(108,69,o),
(117,78,cs),
(303,247,ls),
(314,257,o),
(319,271,o),
(319,288,cs),
(319,299,o),
(317,313,o),
(298,335,cs),
(163,490,ls),
(160,494,o),
(155,496,o),
(149,496,cs),
(131,496,o),
(114,474,o),
(114,456,cs),
(114,448,o),
(117,442,o),
(122,435,cs),
(228,288,l),
(228,281,l)
);
}
);
width = 554;
}
);
unicode = 187;
},
{
glyphname = guilsinglleft;
layers = (
{
layerId = master01;
shapes = (
{
closed = 1;
nodes = (
(314,446,ls),
(316,448,o),
(319,454,o),
(319,459,cs),
(319,475,o),
(307,496,o),
(285,496,cs),
(284,496,o),
(276,496,o),
(267,487,cs),
(81,318,ls),
(70,308,o),
(65,294,o),
(65,277,cs),
(65,266,o),
(67,252,o),
(86,230,cs),
(221,75,ls),
(224,71,o),
(229,69,o),
(235,69,cs),
(253,69,o),
(270,91,o),
(270,109,cs),
(270,117,o),
(267,123,o),
(262,130,cs),
(156,277,l),
(156,284,l,{
name = hr00;
})
);
}
);
width = 354;
}
);
unicode = 8249;
},
{
glyphname = guilsinglright;
layers = (
{
layerId = master01;
shapes = (
{
closed = 1;
nodes = (
(70,119,ls),
(68,117,o),
(65,111,o),
(65,106,cs),
(65,90,o),
(77,69,o),
(99,69,cs),
(100,69,o),
(108,69,o),
(117,78,cs),
(303,247,ls),
(314,257,o),
(319,271,o),
(319,288,cs),
(319,299,o),
(317,313,o),
(298,335,cs),
(163,490,ls),
(160,494,o),
(155,496,o),
(149,496,cs),
(131,496,o),
(114,474,o),
(114,456,cs),
(114,448,o),
(117,442,o),
(122,435,cs),
(228,288,l),
(228,281,l,{
name = hr00;
})
);
}
);
width = 354;
}
);
unicode = 8250;
},
{
glyphname = quotedbl;
layers = (
{
layerId = master01;
shapes = (
{
closed = 1;
nodes = (
(135,628,o),
(156,631,o),
(161,652,cs),
(207,863,o),
(210,882,o),
(210,882,cs),
(210,906,o),
(187,913,o),
(169,913,cs),
(150,913,o),
(124,909,o),
(121,874,cs),
(101,670,o),
(100,650,o),
(100,646,cs),
(100,632,o),
(109,628,o),
(124,628,cs,{
name = hr00;
})
);
},
{
closed = 1;
nodes = (
(295,628,o),
(316,631,o),
(321,652,cs),
(367,863,o),
(370,882,o),
(370,882,cs),
(370,906,o),
(347,913,o),
(329,913,cs),
(310,913,o),
(284,909,o),
(281,874,cs),
(261,670,o),
(260,650,o),
(260,646,cs),
(260,632,o),
(269,628,o),
(284,628,cs)
);
}
);
width = 430;
}
);
unicode = 34;
},
{
glyphname = quotesingle;
layers = (
{
layerId = master01;
shapes = (
{
closed = 1;
nodes = (
(135,628,o),
(156,631,o),
(161,652,cs),
(207,863,o),
(210,882,o),
(210,882,cs),
(210,906,o),
(187,913,o),
(169,913,cs),
(150,913,o),
(124,909,o),
(121,874,cs),
(101,670,o),
(100,650,o),
(100,646,cs),
(100,632,o),
(109,628,o),
(124,628,cs,{
name = hr00;
})
);
}
);
width = 270;
}
);
unicode = 39;
},
{
glyphname = florin;
layers = (
{
layerId = master01;
shapes = (
{
closed = 1;
nodes = (
(502,426,o),
(516,447,o),
(516,463,cs),
(516,482,o),
(507,493,o),
(493,493,cs),
(345,493,l),
(356,578,ls),
(368,674,o),
(380,791,o),
(480,791,cs),
(538,791,o),
(565,772,o),
(572,772,cs),
(590,772,o),
(607,807,o),
(607,825,cs),
(607,842,o),
(540,860,o),
(480,860,cs),
(333,860,o),
(307,753,o),
(285,585,cs),
(273,493,l),
(139,493,ls),
(124,493,o),
(108,473,o),
(108,456,cs),
(108,442,o),
(117,426,o),
(135,426,cs),
(265,426,l),
(234,157,ls),
(199,-149,o),
(180,-223,o),
(82,-223,cs),
(9,-223,o),
(-23,-181,o),
(-29,-181,cs),
(-47,-181,o),
(-69,-212,o),
(-69,-228,cs),
(-69,-249,o),
(2,-291,o),
(82,-291,cs),
(220,-291,o),
(266,-175,o),
(282,-38,cs),
(336,426,l),
(486,426,ls,{
name = hr00;
})
);
}
);
width = 672;
}
);
unicode = 402;
},
{
glyphname = apple;
layers = (
{
layerId = master01;
shapes = (
{
closed = 1;
nodes = (
(579,-88,o),
(583,-88,o),
(586,-88,cs),
(594,-88,o),
(601,-89,o),
(609,-89,cs),
(635,-89,o),
(637,-70,o),
(654,-60,cs),
(669,-52,o),
(690,-51,o),
(703,-42,cs),
(716,-33,o),
(721,-11,o),
(733,1,cs),
(743,11,o),
(759,12,o),
(768,23,cs),
(779,36,o),
(778,60,o),
(786,74,cs),
(796,91,o),
(820,92,o),
(820,120,cs),
(820,130,o),
(818,141,o),
(818,152,cs),
(818,177,o),
(840,180,o),
(843,200,c),
(843,214,o),
(832,229,o),
(832,244,cs,{
name = hr01;
}),
(832,257,o),
(843,269,o),
(843,283,cs),
(843,305,o),
(819,319,o),
(819,344,cs),
(819,352,o),
(820,360,o),
(820,369,cs,{
name = hr02;
}),
(820,397,o),
(795,400,o),
(784,418,cs),
(778,428,o),
(783,450,o),
(777,460,cs),
(766,479,o),
(740,483,o),
(726,496,cs),
(714,508,o),
(716,526,o),
(703,535,cs),
(689,545,o),
(673,542,o),
(658,550,cs),
(639,560,o),
(637,586,o),
(610,586,cs),
(600,586,o),
(590,583,o),
(582,583,cs),
(558,583,o),
(551,608,o),
(525,608,cs,{
name = hr03;
}),
(511,608,o),
(494,596,o),
(480,596,cs),
(467,596,o),
(449,608,o),
(436,608,cs),
(414,608,o),
(406,585,o),
(381,585,cs),
(372,585,o),
(363,587,o),
(355,587,cs),
(330,586,o),
(323,558,o),
(306,549,cs),
(290,541,o),
(268,543,o),
(255,532,cs),
(244,522,o),
(240,501,o),
(230,491,cs),
(219,480,o),
(198,480,o),
(190,467,cs),
(183,456,o),
(186,435,o),
(179,424,cs),
(169,407,o),
(144,401,o),
(144,376,cs),
(144,368,o),
(145,359,o),
(145,351,cs),
(145,332,o),
(120,311,o),
(120,290,cs,{
name = hr04;
}),
(120,275,o),
(132,265,o),
(132,248,cs,{
name = hr05;
}),
(132,233,o),
(120,218,o),
(120,204,cs,{
name = hr06;
}),
(120,183,o),
(145,168,o),
(145,149,cs),
(145,141,o),
(142,133,o),
(142,124,cs),
(142,98,o),
(168,87,o),
(176,75,cs),
(187,57,o),
(180,46,o),
(191,28,cs),
(201,12,o),
(217,15,o),
(230,4,cs),
(243,-7,o),
(242,-31,o),
(260,-42,cs),
(276,-52,o),
(283,-43,o),
(306,-55,cs),
(319,-62,o),
(331,-91,o),
(357,-91,cs),
(364,-91,o),
(373,-89,o),
(381,-89,cs),
(405,-89,o),
(416,-114,o),
(436,-114,cs,{
name = hr07;
}),
(451,-114,o),
(466,-102,o),
(482,-102,cs,{
name = hr08;
}),
(497,-102,o),
(513,-112,o),
(528,-112,cs),
(545,-112,o),
(558,-94,o),
(576,-89,cs)
);
},
{
closed = 1;
nodes = (
(537,0,o),
(527,-13,o),
(515,-13,cs,{
name = hr10;
}),
(504,-13,o),
(493,-6,o),
(482,-6,cs),
(470,-6,o),
(458,-15,o),
(446,-15,c),
(432,-13,o),
(425,3,o),
(406,3,cs,{
name = hr11;
}),
(401,3,o),
(396,2,o),
(391,2,cs),
(372,2,o),
(365,23,o),
(354,28,cs),
(337,37,o),
(332,29,o),
(321,37,cs),
(308,45,o),
(309,63,o),
(299,71,cs),
(290,79,o),
(278,77,o),
(271,88,cs),
(263,101,o),
(268,110,o),
(260,123,cs),
(255,132,o),
(235,139,o),
(235,158,cs),
(235,163,o),
(237,169,o),
(237,174,cs),
(237,189,o),
(220,200,o),
(220,215,cs,{
name = hr12;
}),
(220,226,o),
(228,237,o),
(228,248,cs),
(228,260,o),
(220,267,o),
(220,278,cs),
(220,294,o),
(237,308,o),
(237,324,cs),
(237,329,o),
(236,335,o),
(236,340,cs),
(236,359,o),
(255,363,o),
(262,376,cs),
(267,384,o),
(265,399,o),
(270,407,cs),
(277,416,o),
(291,416,o),
(299,424,cs),
(307,432,o),
(309,447,o),
(318,454,cs),
(327,462,o),
(343,460,o),
(354,466,cs),
(367,472,o),
(371,493,o),
(390,493,cs),
(396,493,o),
(401,492,o),
(407,492,cs),
(426,492,o),
(433,509,o),
(449,509,cs,{
name = hr13;
}),
(459,509,o),
(471,500,o),
(481,500,cs),
(491,500,o),
(503,509,o),
(514,509,cs),
(533,509,o),
(536,491,o),
(555,491,cs),
(561,491,o),
(568,493,o),
(575,493,cs,{
name = hr14;
}),
(595,493,o),
(596,474,o),
(609,467,cs),
(621,460,o),
(632,464,o),
(642,456,cs),
(652,449,o),
(650,436,o),
(659,428,cs),
(669,418,o),
(688,415,o),
(696,402,cs),
(700,394,o),
(697,379,o),
(701,371,cs),
(709,357,o),
(727,356,o),
(727,335,cs),
(727,329,o),
(726,323,o),
(726,318,cs),
(726,300,o),
(744,289,o),
(744,273,cs,{
name = hr15;
}),
(744,264,o),
(736,254,o),
(736,245,cs),
(736,234,o),
(744,223,o),
(744,213,c),
(741,199,o),
(726,196,o),
(726,177,cs),
(726,171,o),
(727,164,o),
(727,157,cs,{
name = hr16;
}),
(727,133,o),
(711,136,o),
(703,122,cs),
(697,111,o),
(697,94,o),
(690,84,cs),
(683,76,o),
(671,76,o),
(664,68,cs),
(656,60,o),
(652,45,o),
(642,38,cs),
(633,31,o),
(617,30,o),
(607,24,c),
(595,19,o),
(594,3,o),
(574,3,cs),
(569,3,o),
(564,4,o),
(559,4,cs),
(556,4,o),
(553,4,o),
(550,3,cs)
);
},
{
closed = 1;
nodes = (
(388,417,o),
(312,341,o),
(312,247,cs),
(312,153,o),
(388,77,o),
(482,77,cs),
(576,77,o),
(652,153,o),
(652,247,cs),
(652,341,o),
(576,417,o),
(482,417,cs)
);
},
{
closed = 1;
nodes = (
(524,117,l),
(439,117,l),
(439,292,l),
(386,292,l),
(386,360,l),
(577,360,l),
(577,292,l),
(524,292,l)
);
}
);
width = 963;
}
);
},
{
glyphname = at;
layers = (
{
layerId = master01;
shapes = (
{
closed = 1;
nodes = (
(662,-220,o),
(665,-202,o),
(652,-189,cs),
(643,-179,o),
(631,-183,o),
(615,-190,cs),
(563,-211,o),
(479,-228,o),
(409,-228,cs),
(202,-228,o),
(95,-56,o),
(95,151,cs),
(95,417,o),
(232,689,o),
(500,689,cs),
(699,689,o),
(791,552,o),
(791,354,cs),
(791,252,o),
(755,39,o),
(651,39,cs),
(591,39,o),
(591,98,o),
(601,178,cs),
(633,448,l),
(638,487,o),
(601,490,o),
(543,490,cs),
(455,490,o),
(375,466,o),
(312,403,cs),
(246,337,o),
(210,255,o),
(210,161,cs),
(210,62,o),
(262,-14,o),
(361,-14,cs),
(442,-14,o),
(493,20,o),
(528,92,c),
(528,28,o),
(574,-14,o),
(638,-14,cs),
(797,-14,o),
(846,203,o),
(846,357,cs),
(846,578,o),
(731,735,o),
(508,735,cs),
(204,735,o),
(41,454,o),
(41,151,cs),
(41,-87,o),
(162,-276,o),
(400,-276,cs),
(484,-276,o),
(574,-262,o),
(641,-230,cs,{
name = hr00;
})
);
},
{
closed = 1;
nodes = (
(318,50,o),
(288,106,o),
(288,171,cs),
(288,311,o),
(392,441,o),
(535,441,cs),
(539,441,o),
(557,440,o),
(560,438,c),
(542,294,ls),
(528,183,o),
(494,50,o),
(382,50,cs)
);
}
);
width = 886;
}
);
unicode = 64;
},
{
glyphname = ampersand;
layers = (
{
layerId = master01;
shapes = (
{
closed = 1;
nodes = (
(644,3,o),
(674,-14,o),
(703,-14,cs),
(723,-14,o),
(742,0,o),
(742,19,cs),
(742,55,o),
(709,35,o),
(654,107,cs),
(617,154,l),
(680,248,o),
(688,307,o),
(688,329,cs),
(688,351,o),
(676,363,o),
(649,363,cs),
(604,363,o),
(627,325,o),
(568,217,c),
(373,469,l),
(416,495,ls),
(505,549,o),
(582,606,o),
(582,708,cs),
(582,811,o),
(496,872,o),
(396,872,cs),
(275,872,o),
(182,805,o),
(182,678,cs),
(182,604,o),
(216,555,o),
(263,489,c),
(213,459,ls),
(119,403,o),
(59,326,o),
(59,220,cs),
(59,73,o),
(168,-14,o),
(315,-14,cs),
(418,-14,o),
(506,18,o),
(572,94,c),
(595,65,ls,{
name = hr00;
})
);
},
{
closed = 1;
nodes = (
(219,52,o),
(139,118,o),
(139,222,cs),
(139,302,o),
(189,362,o),
(256,402,cs),
(306,432,l),
(527,151,l),
(485,92,o),
(409,52,o),
(323,52,cs)
);
},
{
closed = 1;
nodes = (
(502,626,o),
(435,585,o),
(366,545,cs),
(333,526,l),
(296,572,o),
(260,617,o),
(260,678,cs),
(260,759,o),
(312,807,o),
(395,807,cs),
(455,807,o),
(503,766,o),
(503,705,cs)
);
}
);
width = 735;
}
);
unicode = 38;
},
{
glyphname = paragraph;
layers = (
{
layerId = master01;
shapes = (
{
closed = 1;
nodes = (
(483,644,o),
(496,761,o),
(596,761,cs),
(654,761,o),
(680,742,o),
(693,742,cs),
(705,742,o),
(721,758,o),
(721,786,cs),
(721,803,o),
(654,821,o),
(587,821,cs),
(547,821,o),
(406,786,o),
(263,753,cs),
(185,735,o),
(30,691,o),
(30,525,cs),
(30,390,o),
(129,354,o),
(208,354,cs),
(288,354,o),
(341,393,o),
(341,414,cs),
(341,433,o),
(323,456,o),
(304,456,cs),
(292,456,o),
(271,416,o),
(206,416,cs,{
name = hr01;
}),
(140,416,o),
(101,468,o),
(101,528,cs),
(101,591,o),
(125,655,o),
(251,687,cs),
(454,737,l),
(418,685,o),
(407,613,o),
(399,546,cs),
(364,237,ls),
(329,-69,o),
(310,-143,o),
(212,-143,cs),
(139,-143,o),
(107,-101,o),
(97,-101,cs,{
name = hr02;
}),
(77,-101,o),
(61,-132,o),
(61,-148,cs),
(61,-169,o),
(132,-211,o),
(212,-211,cs),
(350,-211,o),
(396,-95,o),
(412,42,cs),
(472,548,ls)
);
}
);
width = 641;
}
);
unicode = 182;
},
{
glyphname = section;
layers = (
{
layerId = master01;
shapes = (
{
closed = 1;
nodes = (
(407,589,o),
(190,604,o),
(190,719,cs),
(190,793,o),
(239,827,o),
(312,827,cs),
(401,827,o),
(421,765,o),
(452,765,cs),
(469,765,o),
(481,777,o),
(481,798,cs),
(481,837,o),
(403,887,o),
(324,887,cs),
(189,887,o),
(116,822,o),
(116,712,cs),
(116,659,o),
(142,623,o),
(176,593,c),
(136,560,o),
(109,509,o),
(109,444,cs),
(109,284,o),
(327,269,o),
(327,153,cs),
(327,80,o),
(278,46,o),
(205,46,cs),
(116,46,o),
(96,108,o),
(65,108,cs),
(48,108,o),
(36,96,o),
(36,75,cs),
(36,35,o),
(114,-14,o),
(193,-14,cs),
(328,-14,o),
(401,50,o),
(401,160,cs),
(401,213,o),
(375,249,o),
(341,280,c),
(381,312,o),
(407,363,o),
(407,429,cs,{
name = hr00;
})
);
},
{
closed = 1;
nodes = (
(334,377,o),
(315,343,o),
(286,322,c),
(233,359,o),
(183,393,o),
(183,452,cs),
(183,495,o),
(202,529,o),
(231,550,c),
(283,514,o),
(334,479,o),
(334,421,cs)
);
}
);
width = 507;
}
);
unicode = 167;
},
{
glyphname = copyright;
layers = (
{
layerId = master01;
shapes = (
{
closed = 1;
nodes = (
(155,945,o),
(60,707,o),
(60,522,cs),
(60,354,o),
(141,208,o),
(386,208,cs),
(675,208,o),
(770,447,o),
(770,632,cs),
(770,844,o),
(635,945,o),
(444,945,cs)
);
},
{
closed = 1;
nodes = (
(282,825,o),
(223,655,o),
(223,522,cs),
(223,412,o),
(271,327,o),
(403,327,cs),
(501,327,o),
(578,398,o),
(578,433,cs),
(578,448,o),
(563,459,o),
(550,459,cs),
(525,459,o),
(507,384,o),
(407,384,cs),
(321,384,o),
(287,450,o),
(287,521,cs),
(287,612,o),
(330,772,o),
(455,772,cs),
(539,772,o),
(549,711,o),
(570,711,cs,{
name = hr01;
}),
(582,711,o),
(605,728,o),
(605,740,cs),
(605,753,o),
(561,825,o),
(456,825,cs)
);
},
{
closed = 1;
nodes = (
(600,900,o),
(710,814,o),
(710,632,cs),
(710,467,o),
(630,253,o),
(386,253,cs),
(186,253,o),
(120,378,o),
(120,522,cs),
(120,687,o),
(200,900,o),
(444,900,cs)
);
}
);
width = 800;
}
);
unicode = 169;
},
{
glyphname = registered;
layers = (
{
layerId = master01;
shapes = (
{
closed = 1;
nodes = (
(155,945,o),
(60,707,o),
(60,522,cs),
(60,354,o),
(141,208,o),
(386,208,cs),
(675,208,o),
(770,447,o),
(770,632,cs),
(770,844,o),
(635,945,o),
(444,945,cs,{
name = hr00;
})
);
},
{
closed = 1;
nodes = (
(600,900,o),
(710,814,o),
(710,632,cs),
(710,467,o),
(630,253,o),
(386,253,cs),
(186,253,o),
(120,378,o),
(120,522,cs),
(120,687,o),
(200,900,o),
(444,900,cs)
);
},
{
closed = 1;
nodes = (
(296,336,o),
(306,340,o),
(309,360,cs),
(332,553,l),
(371,553,ls),
(437,553,o),
(453,511,o),
(479,435,cs),
(507,355,ls),
(512,339,o),
(521,336,o),
(539,336,cs),
(556,336,o),
(571,345,o),
(571,361,cs),
(571,363,o),
(570,366,o),
(546,434,cs),
(526,491,o),
(519,540,o),
(471,573,c),
(542,584,o),
(602,660,o),
(602,721,cs),
(602,806,o),
(534,834,o),
(444,834,cs),
(370,834,o),
(327,826,o),
(323,825,cs),
(311,823,o),
(301,815,o),
(300,804,cs),
(247,363,l),
(247,342,o),
(260,336,o),
(277,336,cs)
);
},
{
closed = 1;
nodes = (
(359,774,l),
(387,779,o),
(414,781,o),
(440,781,cs),
(489,781,o),
(536,756,o),
(536,710,cs),
(536,637,o),
(449,609,o),
(397,609,cs),
(339,609,l)
);
}
);
width = 800;
}
);
unicode = 174;
},
{
glyphname = trademark;
layers = (
{
layerId = master01;
shapes = (
{
closed = 1;
nodes = (
(362,805,o),
(372,815,o),
(372,836,cs),
(372,852,o),
(360,860,o),
(344,860,cs),
(75,860,ls),
(54,860,o),
(45,849,o),
(45,830,cs),
(45,813,o),
(56,805,o),
(72,805,cs),
(174,805,l),
(119,361,o),
(118,354,o),
(118,354,c),
(118,331,o),
(133,329,o),
(150,329,cs),
(165,329,o),
(179,336,o),
(181,356,cs),
(237,805,l),
(342,805,ls)
);
},
{
closed = 1;
nodes = (
(529,361,ls),
(532,343,o),
(555,337,o),
(565,337,cs),
(580,337,o),
(594,345,o),
(600,360,cs),
(742,714,l),
(715,355,l),
(715,334,o),
(723,329,o),
(743,329,cs),
(760,329,o),
(774,335,o),
(776,354,cs),
(813,839,l),
(813,858,o),
(800,867,o),
(781,867,cs,{
name = hr01;
}),
(770,867,ls),
(756,867,o),
(739,857,o),
(733,843,cs),
(574,459,l),
(503,842,ls),
(500,858,o),
(484,868,o),
(468,868,cs,{
name = hr02;
}),
(462,868,ls),
(445,868,o),
(426,860,o),
(423,841,cs),
(343,351,l),
(343,332,o),
(352,329,o),
(370,329,cs),
(389,329,o),
(402,336,o),
(405,354,cs),
(464,715,l)
);
}
);
width = 885;
}
);
unicode = 8482;
},
{
glyphname = degree;
layers = (
{
layerId = master01;
shapes = (
{
closed = 1;
nodes = (
(70,558,o),
(122,479,o),
(231,479,cs),
(362,479,o),
(447,582,o),
(447,702,cs),
(447,791,o),
(393,871,o),
(285,871,cs),
(132,871,o),
(70,747,o),
(70,646,cs,{
name = hr00;
})
);
},
{
closed = 1;
nodes = (
(137,727,o),
(184,817,o),
(279,817,cs),
(349,817,o),
(381,764,o),
(381,695,cs),
(381,610,o),
(321,534,o),
(236,534,cs),
(168,534,o),
(137,586,o),
(137,654,cs)
);
}
);
width = 497;
}
);
unicode = 176;
},
{
glyphname = bar;
layers = (
{
layerId = master01;
shapes = (
{
closed = 1;
nodes = (
(332,889,o),
(318,896,o),
(301,896,cs),
(277,896,o),
(260,892,o),
(257,870,cs),
(150,-18,l),
(150,-34,o),
(158,-38,o),
(177,-38,cs),
(199,-38,o),
(221,-35,o),
(224,-13,cs),
(332,875,l,{
name = hr00;
})
);
}
);
width = 482;
}
);
unicode = 124;
},
{
glyphname = brokenbar;
layers = (
{
layerId = master01;
shapes = (
{
closed = 1;
nodes = (
(332,889,o),
(318,896,o),
(301,896,cs),
(277,896,o),
(260,892,o),
(257,870,cs),
(216,528,l),
(216,512,o),
(224,508,o),
(243,508,cs),
(265,508,o),
(287,511,o),
(290,533,cs),
(332,875,l,{
name = hr00;
})
);
},
{
closed = 1;
nodes = (
(266,343,o),
(252,350,o),
(235,350,cs),
(211,350,o),
(194,346,o),
(191,324,cs),
(150,-18,l),
(150,-34,o),
(158,-38,o),
(177,-38,cs),
(199,-38,o),
(221,-35,o),
(224,-13,cs),
(266,329,l)
);
}
);
width = 482;
}
);
unicode = 166;
},
{
glyphname = dagger;
layers = (
{
layerId = master01;
shapes = (
{
closed = 1;
nodes = (
(321,880,o),
(307,887,o),
(290,887,cs),
(266,887,o),
(249,883,o),
(246,861,cs),
(226,704,l),
(82,704,ls),
(58,704,o),
(45,691,o),
(45,667,cs),
(45,649,o),
(59,641,o),
(78,641,cs),
(219,641,l),
(138,-18,l),
(138,-34,o),
(146,-38,o),
(165,-38,cs),
(187,-38,o),
(209,-35,o),
(212,-13,cs),
(293,641,l),
(437,641,ls),
(461,641,o),
(473,653,o),
(473,677,cs),
(473,695,o),
(459,704,o),
(441,704,cs),
(301,704,l),
(321,866,l,{
name = hr00;
})
);
}
);
width = 456;
}
);
unicode = 8224;
},
{
glyphname = uni2113;
layers = (
{
layerId = master01;
shapes = (
{
closed = 1;
nodes = (
(274,870,o),
(271,872,o),
(253,872,cs),
(230,872,o),
(201,861,o),
(198,839,cs),
(122,207,l),
(119,188,o),
(116,148,o),
(116,120,cs),
(116,50,o),
(130,-14,o),
(154,-14,cs),
(172,-14,o),
(207,-4,o),
(207,14,cs),
(207,35,o),
(190,64,o),
(190,129,cs,{
name = hr01;
}),
(190,150,o),
(191,175,o),
(195,207,cs),
(274,860,l)
);
}
);
width = 318;
}
);
unicode = 8467;
},
{
glyphname = daggerdbl;
layers = (
{
layerId = master01;
shapes = (
{
closed = 1;
nodes = (
(321,880,o),
(307,887,o),
(290,887,cs),
(266,887,o),
(249,883,o),
(246,861,cs),
(226,704,l),
(82,704,ls),
(58,704,o),
(45,691,o),
(45,667,cs),
(45,649,o),
(59,641,o),
(78,641,cs),
(219,641,l),
(165,208,l),
(22,208,ls),
(-2,208,o),
(-14,196,o),
(-14,172,cs),
(-14,154,o),
(0,145,o),
(18,145,cs),
(158,145,l),
(138,-18,l),
(138,-34,o),
(146,-38,o),
(165,-38,cs),
(187,-38,o),
(209,-35,o),
(212,-13,cs),
(231,145,l),
(377,145,ls),
(401,145,o),
(414,158,o),
(414,182,cs),
(414,200,o),
(400,208,o),
(381,208,cs),
(239,208,l),
(293,641,l),
(437,641,ls),
(461,641,o),
(473,653,o),
(473,677,cs),
(473,695,o),
(459,704,o),
(441,704,cs),
(301,704,l),
(321,866,l,{
name = hr00;
})
);
}
);
width = 456;
}
);
unicode = 8225;
},
{
glyphname = estimated;
layers = (
{
layerId = master01;
shapes = (
{
closed = 1;
nodes = (
(157,78,l),
(198,39,o),
(247,19,o),
(302,19,cs),
(385,19,o),
(449,59,o),
(495,139,c),
(530,118,l),
(461,26,o),
(409,-17,o),
(302,-17,cs),
(138,-17,o),
(44,107,o),
(44,259,cs),
(44,422,o),
(142,535,o),
(302,535,cs),
(473,535,o),
(554,413,o),
(561,259,c),
(157,259,l,{
name = hr00;
})
);
},
{
closed = 1;
nodes = (
(448,440,l),
(406,480,o),
(357,500,o),
(301,500,cs),
(244,500,o),
(196,480,o),
(157,440,c),
(157,295,l),
(448,295,l)
);
}
);
width = 600;
}
);
unicode = 8494;
},
{
glyphname = Euro;
layers = (
{
layerId = master01;
shapes = (
{
closed = 1;
nodes = (
(186,860,o),
(102,567,o),
(102,330,cs),
(102,137,o),
(172,-14,o),
(364,-14,cs),
(466,-14,o),
(557,36,o),
(619,133,cs),
(623,139,o),
(626,146,o),
(626,151,cs),
(626,169,o),
(609,181,o),
(594,181,cs),
(577,181,o),
(562,153,o),
(549,139,cs),
(502,81,o),
(442,53,o),
(374,53,cs),
(235,53,o),
(182,185,o),
(182,325,cs),
(182,501,o),
(244,799,o),
(433,799,cs),
(558,799,o),
(573,696,o),
(596,696,cs),
(613,696,o),
(642,716,o),
(642,729,cs),
(642,751,o),
(578,860,o),
(433,860,cs,{
name = hr00;
})
);
},
{
pos = (-66,0);
ref = equal;
}
);
width = 672;
}
);
unicode = 8364;
},
{
glyphname = cent;
layers = (
{
layerId = master01;
shapes = (
{
closed = 1;
nodes = (
(462,816,o),
(464,834,o),
(464,838,cs),
(464,855,o),
(455,857,o),
(436,857,cs),
(415,857,o),
(407,844,o),
(404,824,cs),
(382,678,l),
(252,656,o),
(153,519,o),
(153,383,cs),
(153,264,o),
(205,186,o),
(306,165,c),
(287,33,ls),
(284,14,o),
(284,10,o),
(284,6,cs),
(284,-9,o),
(291,-14,o),
(309,-14,cs),
(330,-14,o),
(341,-4,o),
(344,19,cs),
(365,160,l),
(366,160,l),
(436,160,o),
(520,209,o),
(520,230,cs),
(520,248,o),
(509,275,o),
(494,275,cs),
(488,275,o),
(441,224,o),
(374,222,c),
(432,618,l),
(485,613,o),
(504,579,o),
(515,579,cs),
(534,579,o),
(552,602,o),
(552,621,cs),
(552,640,o),
(508,673,o),
(441,680,c),
(461,811,ls,{
name = hr00;
})
);
},
{
closed = 1;
nodes = (
(235,478,o),
(283,585,o),
(373,612,c),
(316,231,l),
(262,251,o),
(235,305,o),
(235,381,cs)
);
}
);
width = 672;
}
);
unicode = 162;
},
{
glyphname = currency;
layers = (
{
layerId = master01;
shapes = (
{
closed = 1;
nodes = (
(109,347,o),
(118,308,o),
(137,276,c),
(30,169,ls),
(26,164,o),
(23,159,o),
(23,152,cs),
(23,134,o),
(42,113,o),
(63,113,cs),
(68,113,o),
(74,114,o),
(78,118,cs),
(183,225,l),
(213,204,o),
(251,191,o),
(298,191,cs),
(359,191,o),
(412,210,o),
(453,242,c),
(555,118,ls),
(559,114,o),
(565,113,o),
(572,113,cs),
(593,113,o),
(610,131,o),
(610,152,cs),
(610,157,o),
(607,164,o),
(603,169,cs),
(501,292,l),
(534,337,o),
(552,394,o),
(552,454,cs),
(552,495,o),
(542,534,o),
(523,567,c),
(629,674,l),
(634,677,o),
(638,685,o),
(638,691,cs),
(638,712,o),
(621,730,o),
(601,730,cs),
(596,730,o),
(586,728,o),
(582,724,cs),
(476,619,l),
(446,640,o),
(408,653,o),
(362,653,cs),
(295,653,o),
(243,633,o),
(204,602,c),
(106,723,ls),
(102,727,o),
(96,728,o),
(89,728,cs),
(68,728,o),
(51,712,o),
(51,689,cs),
(51,684,o),
(54,677,o),
(58,672,cs),
(157,551,l),
(124,502,o),
(109,442,o),
(109,388,cs,{
name = hr00;
})
);
},
{
closed = 1;
nodes = (
(188,483,o),
(243,589,o),
(355,589,cs),
(437,589,o),
(475,527,o),
(475,446,cs),
(475,346,o),
(404,256,o),
(304,256,cs),
(224,256,o),
(188,317,o),
(188,397,cs)
);
}
);
width = 672;
}
);
unicode = 164;
},
{
glyphname = dollar;
layers = (
{
layerId = master01;
shapes = (
{
closed = 1;
nodes = (
(453,959,o),
(450,963,o),
(426,963,cs),
(405,963,o),
(399,958,o),
(394,930,cs),
(381,860,l),
(247,855,o),
(140,781,o),
(140,645,cs),
(140,542,o),
(222,478,o),
(304,418,c),
(239,53,l),
(188,61,o),
(154,87,o),
(127,126,c),
(108,157,o),
(102,189,o),
(77,189,cs),
(56,189,o),
(45,172,o),
(45,154,cs),
(45,116,o),
(74,73,o),
(104,48,cs),
(140,17,o),
(183,-1,o),
(228,-9,c),
(215,-87,l),
(215,-91,o),
(214,-95,o),
(214,-98,cs),
(214,-118,o),
(222,-120,o),
(242,-120,cs),
(263,-120,o),
(269,-115,o),
(274,-87,cs),
(287,-14,l),
(440,-13,o),
(549,74,o),
(549,225,cs),
(549,337,o),
(458,405,o),
(372,467,c),
(429,793,l),
(508,777,o),
(536,719,o),
(568,719,cs),
(585,719,o),
(596,730,o),
(596,750,cs),
(596,792,o),
(524,842,o),
(440,856,c),
(453,930,l,{
name = hr00;
})
);
},
{
closed = 1;
nodes = (
(469,124,o),
(399,57,o),
(298,50,c),
(356,379,l),
(418,333,o),
(469,285,o),
(469,221,cs)
);
},
{
closed = 1;
nodes = (
(221,735,o),
(281,791,o),
(370,796,c),
(319,505,l),
(264,547,o),
(221,590,o),
(221,647,cs)
);
}
);
width = 672;
}
);
unicode = 36;
},
{
glyphname = lira;
layers = (
{
layerId = master01;
shapes = (
{
closed = 1;
nodes = (
(125,26,ls),
(125,10,o),
(136,0,o),
(157,0,cs),
(568,0,ls),
(583,0,o),
(596,13,o),
(596,34,cs),
(596,55,o),
(586,65,o),
(569,65,cs),
(206,65,l),
(258,522,ls),
(277,688,o),
(317,800,o),
(496,800,cs),
(540,800,o),
(542,790,o),
(568,790,cs),
(586,790,o),
(598,805,o),
(598,821,cs),
(598,861,o),
(533,872,o),
(489,872,cs),
(271,872,o),
(206,745,o),
(183,542,cs),
(125,31,l,{
name = hr00;
})
);
},
{
pos = (-36,0);
ref = equal;
}
);
width = 686;
}
);
unicode = 8356;
},
{
glyphname = sterling;
layers = (
{
layerId = master01;
shapes = (
{
closed = 1;
nodes = (
(125,26,ls),
(125,10,o),
(136,0,o),
(157,0,cs),
(568,0,ls),
(583,0,o),
(596,13,o),
(596,34,cs),
(596,55,o),
(586,65,o),
(569,65,cs),
(206,65,l),
(258,522,ls),
(277,688,o),
(317,800,o),
(496,800,cs),
(540,800,o),
(542,790,o),
(568,790,cs),
(586,790,o),
(598,805,o),
(598,821,cs),
(598,861,o),
(533,872,o),
(489,872,cs),
(271,872,o),
(206,745,o),
(183,542,cs),
(125,31,l,{
name = hr00;
})
);
},
{
ref = ethbar;
}
);
width = 686;
}
);
unicode = 163;
},
{
glyphname = yen;
layers = (
{
layerId = master01;
shapes = (
{
closed = 1;
nodes = (
(82,346,o),
(71,326,o),
(71,308,cs),
(71,294,o),
(78,280,o),
(92,280,cs),
(268,280,l),
(237,24,ls),
(236,16,o),
(236,10,o),
(236,9,cs),
(236,-12,o),
(255,-14,o),
(276,-14,cs),
(294,-14,o),
(310,-7,o),
(313,18,cs),
(346,280,l),
(535,280,ls),
(557,280,o),
(566,301,o),
(566,317,cs),
(566,332,o),
(557,346,o),
(544,346,cs),
(354,346,l),
(360,393,l),
(415,473,l),
(561,473,ls),
(577,473,o),
(590,492,o),
(590,508,cs),
(590,524,o),
(582,539,o),
(563,539,cs),
(461,539,l),
(642,800,ls),
(649,809,o),
(653,822,o),
(653,832,cs),
(653,850,o),
(639,860,o),
(614,860,cs),
(594,860,o),
(583,853,o),
(575,842,cs),
(332,473,l),
(196,831,ls),
(187,853,o),
(178,860,o),
(152,860,cs),
(130,860,o),
(112,852,o),
(112,835,cs),
(112,832,o),
(113,829,o),
(113,827,c),
(226,539,l),
(124,539,ls),
(107,539,o),
(94,522,o),
(94,504,cs),
(94,489,o),
(101,473,o),
(115,473,cs),
(252,473,l),
(282,396,l),
(276,346,l),
(100,346,ls,{
name = hr00;
})
);
}
);
width = 672;
}
);
unicode = 165;
},
{
glyphname = plus;
layers = (
{
layerId = master01;
shapes = (
{
closed = 1;
nodes = (
(271,148,o),
(285,141,o),
(302,141,cs),
(317,141,o),
(337,148,o),
(338,164,cs),
(365,378,l),
(561,378,ls),
(576,378,o),
(588,393,o),
(589,409,cs),
(590,426,o),
(582,444,o),
(567,444,cs),
(373,444,l),
(397,645,l),
(400,661,o),
(382,669,o),
(366,669,cs),
(350,669,o),
(334,661,o),
(331,645,c),
(308,444,l),
(112,444,ls),
(96,444,o),
(86,430,o),
(85,413,cs),
(84,398,o),
(89,378,o),
(105,378,cs),
(299,378,l),
(273,164,ls,{
name = hr00;
})
);
}
);
width = 674;
}
);
unicode = 43;
},
{
glyphname = minus;
layers = (
{
layerId = master01;
shapes = (
{
closed = 1;
nodes = (
(103,444,o),
(93,428,o),
(92,412,cs),
(91,396,o),
(95,378,o),
(110,378,cs),
(568,378,ls),
(583,378,o),
(595,396,o),
(596,412,cs),
(597,428,o),
(592,444,o),
(576,444,cs),
(119,444,ls,{
name = hr00;
})
);
}
);
width = 688;
}
);
unicode = 8722;
},
{
glyphname = multiply;
layers = (
{
layerId = master01;
shapes = (
{
closed = 1;
nodes = (
(463,203,o),
(469,202,o),
(476,202,cs),
(497,202,o),
(514,220,o),
(514,241,cs),
(514,246,o),
(511,253,o),
(507,258,cs),
(381,410,l),
(533,563,ls),
(538,566,o),
(542,574,o),
(542,580,cs),
(542,601,o),
(525,619,o),
(505,619,cs),
(500,619,o),
(490,617,o),
(486,613,cs),
(333,461,l),
(210,612,ls),
(206,616,o),
(200,617,o),
(193,617,cs),
(172,617,o),
(155,601,o),
(155,578,cs),
(155,573,o),
(158,566,o),
(162,561,cs),
(286,410,l),
(134,258,ls),
(130,253,o),
(127,248,o),
(127,241,cs),
(127,223,o),
(146,202,o),
(167,202,cs),
(172,202,o),
(178,203,o),
(182,207,cs),
(333,360,l),
(459,207,ls,{
name = hr00;
})
);
}
);
width = 672;
}
);
unicode = 215;
},
{
glyphname = divide;
layers = (
{
layerId = master01;
shapes = (
{
closed = 1;
nodes = (
(151,161,o),
(149,154,o),
(149,153,cs),
(149,133,o),
(172,116,o),
(194,116,cs),
(203,116,o),
(208,119,o),
(214,127,cs),
(520,659,ls),
(522,661,o),
(523,669,o),
(523,671,cs),
(523,693,o),
(499,707,o),
(480,707,cs),
(474,707,o),
(463,703,o),
(459,696,cs),
(152,164,ls,{
name = hr00;
})
);
},
{
closed = 1;
nodes = (
(120,472,o),
(145,449,o),
(176,448,c),
(204,449,o),
(229,473,o),
(229,501,cs),
(229,532,o),
(204,556,o),
(175,556,cs),
(145,556,o),
(121,531,o),
(121,503,cs)
);
},
{
closed = 1;
nodes = (
(441,287,o),
(466,265,o),
(497,263,c),
(525,265,o),
(550,288,o),
(550,316,cs),
(550,347,o),
(525,371,o),
(495,371,cs),
(466,371,o),
(442,346,o),
(442,318,cs)
);
}
);
width = 673;
}
);
unicode = 247;
},
{
glyphname = equal;
layers = (
{
layerId = master01;
shapes = (
{
closed = 1;
nodes = (
(87,346,o),
(76,326,o),
(76,308,cs),
(76,294,o),
(83,280,o),
(97,280,cs),
(540,280,ls),
(562,280,o),
(571,301,o),
(571,317,cs),
(571,332,o),
(562,346,o),
(549,346,cs),
(105,346,ls,{
name = hr00;
})
);
},
{
closed = 1;
nodes = (
(112,539,o),
(99,522,o),
(99,504,cs),
(99,489,o),
(106,473,o),
(120,473,cs),
(566,473,ls),
(582,473,o),
(595,492,o),
(595,508,cs),
(595,524,o),
(587,539,o),
(568,539,cs),
(129,539,ls)
);
}
);
width = 672;
}
);
unicode = 61;
},
{
glyphname = greater;
layers = (
{
layerId = master01;
shapes = (
{
closed = 1;
nodes = (
(105,262,ls),
(98,259,o),
(92,253,o),
(91,242,cs),
(89,221,o),
(105,199,o),
(126,199,cs),
(127,199,o),
(130,199,o),
(133,200,cs),
(554,377,ls),
(579,386,o),
(588,395,o),
(589,406,cs),
(590,420,ls),
(592,431,o),
(582,441,o),
(564,449,cs),
(182,624,ls),
(180,626,o),
(170,627,o),
(169,627,cs),
(148,627,o),
(134,610,o),
(131,589,cs),
(130,578,o),
(138,567,o),
(145,564,cs),
(481,417,l),
(480,413,l,{
name = hr00;
})
);
}
);
width = 674;
}
);
unicode = 62;
},
{
glyphname = less;
layers = (
{
layerId = master01;
shapes = (
{
closed = 1;
nodes = (
(570,563,ls),
(577,566,o),
(584,571,o),
(585,582,cs),
(588,603,o),
(575,626,o),
(554,626,cs),
(553,626,o),
(545,626,o),
(543,624,cs),
(120,448,ls),
(94,437,o),
(88,430,o),
(87,419,cs),
(84,405,ls),
(83,393,o),
(88,386,o),
(112,375,cs),
(493,200,ls),
(496,199,o),
(500,199,o),
(501,199,cs),
(528,199,o),
(539,217,o),
(542,238,cs),
(543,249,o),
(536,258,o),
(531,260,cs),
(195,407,l),
(195,414,l,{
name = hr00;
})
);
}
);
width = 676;
}
);
unicode = 60;
},
{
glyphname = greaterequal;
layers = (
{
layerId = master01;
shapes = (
{
closed = 1;
nodes = (
(110,262,ls),
(103,259,o),
(98,253,o),
(97,242,cs),
(96,221,o),
(110,199,o),
(131,199,cs),
(132,199,o),
(135,199,o),
(138,200,cs),
(559,377,ls),
(587,388,o),
(593,399,o),
(594,410,cs),
(595,420,ls),
(597,431,o),
(591,438,o),
(569,449,cs),
(187,624,ls),
(185,626,o),
(177,627,o),
(175,627,cs),
(154,627,o),
(142,610,o),
(139,589,cs),
(138,578,o),
(143,567,o),
(150,564,cs),
(486,417,l),
(485,410,l,{
name = hr00;
})
);
},
{
closed = 1;
nodes = (
(80,122,o),
(70,106,o),
(69,90,cs),
(68,74,o),
(72,56,o),
(87,56,cs),
(531,56,ls),
(546,56,o),
(558,74,o),
(559,90,cs),
(560,106,o),
(552,122,o),
(537,122,cs),
(96,122,ls)
);
}
);
width = 682;
}
);
unicode = 8805;
},
{
glyphname = lessequal;
layers = (
{
layerId = master01;
shapes = (
{
closed = 1;
nodes = (
(597,563,ls),
(604,566,o),
(615,574,o),
(614,585,cs),
(611,606,o),
(598,629,o),
(576,626,c),
(574,626,o),
(572,626,o),
(570,624,cs),
(147,448,ls),
(121,437,o),
(115,430,o),
(114,419,cs),
(112,409,ls),
(111,398,o),
(115,386,o),
(139,375,cs),
(520,200,ls),
(523,199,o),
(527,199,o),
(528,199,cs),
(549,199,o),
(565,217,o),
(567,238,cs),
(569,249,o),
(563,258,o),
(558,260,cs),
(222,407,l),
(222,414,l,{
name = hr00;
})
);
},
{
closed = 1;
nodes = (
(80,122,o),
(70,106,o),
(69,90,cs),
(68,74,o),
(72,56,o),
(87,56,cs),
(531,56,ls),
(546,56,o),
(558,74,o),
(559,90,cs),
(560,106,o),
(552,122,o),
(537,122,cs),
(96,122,ls)
);
}
);
width = 680;
}
);
unicode = 8804;
},
{
glyphname = plusminus;
layers = (
{
layerId = master01;
shapes = (
{
closed = 1;
nodes = (
(55,122,o),
(45,106,o),
(44,90,cs),
(43,74,o),
(47,56,o),
(62,56,cs),
(506,56,ls),
(521,56,o),
(533,74,o),
(534,90,cs),
(535,106,o),
(530,122,o),
(514,122,cs),
(71,122,ls,{
name = hr00;
})
);
},
{
closed = 1;
nodes = (
(254,176,o),
(268,169,o),
(285,169,cs),
(304,169,o),
(320,176,o),
(321,192,cs),
(346,392,l),
(542,392,ls),
(559,392,o),
(569,407,o),
(570,423,cs),
(572,440,o),
(566,458,o),
(548,458,cs),
(355,458,l),
(377,645,l),
(380,661,o),
(362,669,o),
(346,669,cs),
(330,669,o),
(314,661,o),
(311,645,c),
(289,458,l),
(93,458,ls),
(78,458,o),
(68,444,o),
(66,427,cs),
(65,412,o),
(71,392,o),
(86,392,cs),
(281,392,l),
(255,192,ls)
);
}
);
width = 653;
}
);
unicode = 177;
},
{
glyphname = approxequal;
layers = (
{
layerId = master01;
shapes = (
{
closed = 1;
nodes = (
(186,570,o),
(100,547,o),
(100,509,cs),
(100,481,o),
(113,473,o),
(123,473,cs),
(139,473,o),
(165,506,o),
(230,506,cs),
(305,506,o),
(380,446,o),
(463,446,cs,{
name = hr01;
}),
(510,446,o),
(595,469,o),
(595,507,cs),
(595,535,o),
(583,543,o),
(573,543,cs),
(557,543,o),
(531,510,o),
(466,510,cs,{
name = hr02;
}),
(391,510,o),
(316,570,o),
(233,570,cs)
);
},
{
closed = 1;
nodes = (
(162,377,o),
(76,354,o),
(76,316,cs),
(76,288,o),
(89,280,o),
(99,280,cs),
(115,280,o),
(141,313,o),
(206,313,cs),
(281,313,o),
(356,253,o),
(439,253,cs,{
name = hr04;
}),
(486,253,o),
(571,276,o),
(571,314,cs),
(571,342,o),
(559,350,o),
(549,350,cs),
(533,350,o),
(507,317,o),
(442,317,cs,{
name = hr05;
}),
(367,317,o),
(292,377,o),
(209,377,cs)
);
}
);
width = 672;
}
);
unicode = 8776;
},
{
glyphname = asciitilde;
layers = (
{
layerId = master01;
shapes = (
{
closed = 1;
nodes = (
(174,474,o),
(88,451,o),
(88,413,cs),
(88,385,o),
(101,377,o),
(111,377,cs),
(127,377,o),
(153,410,o),
(218,410,cs),
(293,410,o),
(368,350,o),
(451,350,cs,{
name = hr01;
}),
(498,350,o),
(583,373,o),
(583,411,cs),
(583,439,o),
(571,447,o),
(561,447,cs),
(545,447,o),
(519,414,o),
(454,414,cs,{
name = hr02;
}),
(379,414,o),
(304,474,o),
(221,474,cs)
);
}
);
width = 672;
}
);
unicode = 126;
},
{
glyphname = logicalnot;
layers = (
{
layerId = master01;
shapes = (
{
closed = 1;
nodes = (
(93,444,o),
(84,425,o),
(84,407,cs),
(84,393,o),
(88,378,o),
(102,378,cs),
(517,378,l),
(494,191,o),
(493,175,o),
(493,174,cs),
(493,162,o),
(507,159,o),
(520,159,cs),
(538,159,o),
(558,168,o),
(560,186,cs),
(587,408,o),
(588,412,o),
(588,416,cs),
(588,430,o),
(583,444,o),
(568,444,cs),
(111,444,ls,{
name = hr00;
})
);
}
);
width = 672;
}
);
unicode = 172;
},
{
glyphname = asciicircum;
layers = (
{
layerId = master01;
shapes = (
{
closed = 1;
nodes = (
(415,460,ls),
(421,439,o),
(428,434,o),
(451,434,cs),
(472,434,o),
(483,441,o),
(483,457,cs),
(483,459,o),
(482,462,o),
(482,464,cs),
(388,823,ls),
(383,844,o),
(365,849,o),
(343,849,cs),
(320,849,o),
(302,843,o),
(292,823,cs),
(162,571,ls),
(115,481,o),
(110,470,o),
(110,459,cs),
(110,441,o),
(129,434,o),
(145,434,cs),
(163,434,o),
(173,446,o),
(210,519,cs),
(334,763,l,{
name = hr00;
})
);
}
);
width = 589;
}
);
unicode = 94;
},
{
glyphname = infinity;
layers = (
{
layerId = master01;
shapes = (
{
closed = 1;
nodes = (
(468,296,o),
(426,337,o),
(412,405,c),
(443,473,o),
(495,514,o),
(550,514,cs),
(610,514,o),
(639,475,o),
(639,423,cs),
(639,352,o),
(589,296,o),
(523,296,cs,{
name = hr00;
})
);
},
{
closed = 1;
nodes = (
(324,337,o),
(272,296,o),
(217,296,cs),
(157,296,o),
(129,334,o),
(129,385,cs),
(129,455,o),
(170,514,o),
(244,514,cs),
(299,514,o),
(341,473,o),
(356,405,c)
);
},
{
closed = 1;
nodes = (
(704,509,o),
(659,577,o),
(567,577,cs),
(486,577,o),
(426,531,o),
(391,465,c),
(372,531,o),
(324,577,o),
(243,577,cs),
(128,577,o),
(63,474,o),
(63,376,cs),
(63,299,o),
(108,233,o),
(200,233,cs),
(281,233,o),
(341,279,o),
(376,345,c),
(395,279,o),
(443,233,o),
(524,233,cs),
(636,233,o),
(704,338,o),
(704,432,cs)
);
}
);
width = 768;
}
);
unicode = 8734;
},
{
glyphname = integral;
layers = (
{
layerId = master01;
shapes = (
{
closed = 1;
nodes = (
(119,-115,o),
(107,-232,o),
(17,-232,cs),
(-41,-232,o),
(-58,-213,o),
(-65,-213,cs),
(-83,-213,o),
(-100,-248,o),
(-100,-266,cs),
(-100,-283,o),
(-43,-301,o),
(17,-301,cs),
(163,-301,o),
(182,-194,o),
(202,-26,cs),
(276,590,ls),
(288,686,o),
(300,803,o),
(390,803,cs),
(448,803,o),
(465,784,o),
(472,784,cs),
(490,784,o),
(507,819,o),
(507,837,cs),
(507,854,o),
(450,872,o),
(390,872,cs),
(244,872,o),
(225,765,o),
(205,597,cs),
(131,-19,ls,{
name = hr00;
})
);
}
);
width = 512;
}
);
unicode = 8747;
},
{
glyphname = Omega;
layers = (
{
layerId = master01;
shapes = (
{
closed = 1;
nodes = (
(618,283,o),
(660,461,o),
(660,585,cs),
(660,680,o),
(602,805,o),
(435,805,cs),
(241,805,o),
(182,578,o),
(182,439,cs),
(182,357,o),
(195,249,o),
(293,212,c),
(267,35,ls),
(264,13,o),
(251,0,o),
(228,0,cs),
(75,0,ls),
(52,0,o),
(40,9,o),
(40,31,cs),
(40,53,o),
(56,66,o),
(79,66,cs),
(195,66,l),
(211,177,l),
(112,235,o),
(98,355,o),
(98,456,cs),
(98,632,o),
(188,872,o),
(434,872,cs),
(656,872,o),
(743,719,o),
(743,564,cs),
(743,439,o),
(687,266,o),
(559,183,c),
(549,66,l),
(670,66,ls),
(693,66,o),
(705,57,o),
(705,35,cs),
(705,13,o),
(689,0,o),
(666,0,cs),
(501,0,ls),
(479,0,o),
(466,8,o),
(466,25,cs),
(466,33,o),
(467,46,o),
(468,55,cs),
(482,212,l,{
name = hr00;
})
);
}
);
width = 802;
}
);
unicode = 8486;
},
{
glyphname = Delta;
layers = (
{
layerId = master01;
shapes = (
{
closed = 1;
nodes = (
(627,-14,o),
(636,-8,o),
(636,5,cs),
(636,14,o),
(628,47,o),
(628,50,cs),
(463,843,ls),
(458,867,o),
(438,872,o),
(413,872,cs),
(388,872,o),
(367,865,o),
(357,843,cs),
(28,132,ls),
(-7,57,o),
(-21,29,o),
(-21,16,cs),
(-21,-11,o),
(7,-14,o),
(25,-14,cs),
(610,-14,ls,{
name = hr00;
})
);
},
{
closed = 1;
nodes = (
(547,50,l),
(73,50,l),
(402,759,l)
);
}
);
width = 700;
}
);
unicode = 8710;
},
{
glyphname = product;
layers = (
{
layerId = master01;
shapes = (
{
closed = 1;
nodes = (
(467,18,ls),
(464,-7,o),
(448,-14,o),
(430,-14,cs),
(408,-14,o),
(390,-11,o),
(390,14,cs),
(390,15,o),
(394,46,o),
(487,797,c),
(233,797,l),
(137,18,ls),
(134,-7,o),
(118,-14,o),
(100,-14,cs),
(78,-14,o),
(60,-11,o),
(60,14,cs),
(60,15,o),
(60,18,o),
(156,797,c),
(146,797,ls),
(127,797,o),
(113,805,o),
(113,823,cs),
(113,847,o),
(126,860,o),
(150,860,cs),
(578,860,ls),
(596,860,o),
(610,851,o),
(610,833,cs),
(610,809,o),
(598,797,o),
(574,797,cs),
(564,797,l,{
name = hr00;
})
);
}
);
width = 660;
}
);
unicode = 8719;
},
{
glyphname = summation;
layers = (
{
layerId = master01;
shapes = (
{
closed = 1;
nodes = (
(16,34,l),
(16,13,o),
(28,0,o),
(44,0,cs),
(490,0,ls),
(508,0,o),
(521,9,o),
(521,27,cs),
(521,54,o),
(512,63,o),
(484,63,cs),
(125,63,l),
(388,416,ls),
(400,432,o),
(404,447,o),
(404,460,cs),
(404,478,o),
(396,494,o),
(387,509,cs),
(200,797,l),
(561,797,ls),
(589,797,o),
(598,806,o),
(598,833,cs),
(598,851,o),
(585,860,o),
(567,860,cs),
(131,860,ls),
(115,860,o),
(103,847,o),
(103,826,c),
(328,457,l,{
name = hr00;
})
);
}
);
width = 598;
}
);
unicode = 8721;
},
{
glyphname = radical;
layers = (
{
layerId = master01;
shapes = (
{
closed = 1;
nodes = (
(775,914,ls),
(798,914,o),
(813,926,o),
(813,952,cs),
(813,968,o),
(799,977,o),
(782,977,cs),
(562,977,ls),
(538,977,o),
(522,965,o),
(511,934,cs),
(176,-1,l),
(101,299,l),
(97,323,o),
(83,328,o),
(58,328,cs),
(35,328,o),
(20,320,o),
(20,303,cs),
(20,300,o),
(21,297,o),
(21,295,cs),
(115,-85,ls),
(121,-108,o),
(140,-114,o),
(165,-114,cs),
(190,-114,o),
(213,-107,o),
(221,-85,cs),
(587,914,l,{
name = hr00;
})
);
}
);
width = 576;
}
);
unicode = 8730;
},
{
glyphname = partialdiff;
layers = (
{
layerId = master01;
shapes = (
{
closed = 1;
nodes = (
(53,69,o),
(105,-14,o),
(218,-14,cs),
(435,-14,o),
(524,226,o),
(524,449,cs),
(524,674,o),
(434,872,o),
(260,872,cs),
(223,872,o),
(155,861,o),
(155,817,cs),
(155,801,o),
(164,790,o),
(179,790,cs),
(200,790,o),
(210,805,o),
(248,805,cs,{
name = hr01;
}),
(350,805,o),
(456,686,o),
(456,460,c),
(427,498,o),
(379,507,o),
(346,507,cs),
(163,507,o),
(53,323,o),
(53,170,cs)
);
},
{
closed = 1;
nodes = (
(401,445,o),
(432,389,o),
(432,311,cs,{
name = hr02;
}),
(432,177,o),
(343,48,o),
(236,48,cs),
(166,48,o),
(136,101,o),
(136,176,cs),
(136,295,o),
(205,445,o),
(332,445,cs)
);
}
);
width = 553;
}
);
unicode = 8706;
},
{
glyphname = mu;
layers = (
{
layerId = master01;
shapes = (
{
closed = 1;
nodes = (
(110,-200,o),
(105,-155,o),
(105,-108,cs),
(105,-50,o),
(112,17,o),
(116,43,c),
(141,0,o),
(176,-14,o),
(213,-14,cs),
(280,-14,o),
(343,28,o),
(374,102,c),
(377,76,o),
(380,-14,o),
(406,-14,cs),
(425,-14,o),
(460,-4,o),
(460,14,cs),
(460,35,o),
(443,64,o),
(443,129,cs),
(443,150,o),
(443,175,o),
(447,207,cs),
(482,487,l),
(482,503,o),
(471,507,o),
(453,507,cs),
(430,507,o),
(409,504,o),
(406,482,cs),
(384,304,ls),
(370,192,o),
(328,52,o),
(217,52,cs),
(152,52,o),
(135,97,o),
(135,143,cs,{
name = hr01;
}),
(135,217,o),
(157,335,o),
(177,487,c),
(177,504,o),
(157,507,o),
(146,507,cs),
(122,507,o),
(104,504,o),
(101,482,cs),
(86,358,o),
(35,76,o),
(35,-113,cs),
(35,-220,o),
(51,-297,o),
(100,-297,cs),
(120,-297,o),
(140,-279,o),
(140,-255,cs),
(140,-245,o),
(137,-234,o),
(128,-222,cs)
);
}
);
width = 524;
}
);
unicode = 181;
},
{
glyphname = lozenge;
layers = (
{
layerId = master01;
shapes = (
{
closed = 1;
nodes = (
(405,865,o),
(387,872,o),
(362,872,cs),
(337,872,o),
(318,864,o),
(306,843,cs),
(114,517,ls),
(95,484,o),
(85,461,o),
(85,434,cs),
(85,419,o),
(88,403,o),
(94,383,cs),
(209,15,ls),
(216,-7,o),
(234,-14,o),
(259,-14,cs),
(284,-14,o),
(305,-7,o),
(315,15,c),
(506,340,ls),
(525,373,o),
(535,396,o),
(535,423,cs),
(535,438,o),
(532,454,o),
(526,474,cs),
(412,843,ls,{
name = hr00;
})
);
},
{
closed = 1;
nodes = (
(467,423,l),
(268,86,l),
(154,434,l),
(353,772,l)
);
}
);
width = 624;
}
);
unicode = 9674;
},
{
glyphname = commaaccent;
layers = (
{
layerId = master01;
shapes = (
{
closed = 1;
nodes = (
(72,-311,o),
(96,-307,o),
(103,-287,cs),
(148,-157,o),
(161,-117,o),
(161,-100,cs),
(161,-78,o),
(141,-70,o),
(123,-70,cs),
(104,-70,o),
(78,-74,o),
(72,-109,cs),
(45,-267,o),
(41,-289,o),
(41,-293,cs),
(41,-307,o),
(49,-311,o),
(64,-311,cs,{
name = hr00;
})
);
}
);
width = 231;
}
);
},
{
glyphname = dieresis;
layers = (
{
layerId = master01;
shapes = (
{
closed = 1;
nodes = (
(152,713,o),
(142,729,o),
(107,729,cs),
(61,729,o),
(50,699,o),
(50,668,cs),
(50,647,o),
(60,630,o),
(95,630,cs),
(141,630,o),
(152,661,o),
(152,692,cs,{
name = hr00;
})
);
},
{
closed = 1;
nodes = (
(344,713,o),
(334,729,o),
(299,729,cs),
(253,729,o),
(242,699,o),
(242,668,cs),
(242,647,o),
(252,630,o),
(287,630,cs),
(333,630,o),
(344,661,o),
(344,692,cs)
);
}
);
width = 394;
}
);
unicode = 168;
},
{
glyphname = dotaccent;
layers = (
{
layerId = master01;
shapes = (
{
closed = 1;
nodes = (
(152,713,o),
(142,729,o),
(107,729,cs),
(61,729,o),
(50,699,o),
(50,668,cs),
(50,647,o),
(60,630,o),
(95,630,cs),
(141,630,o),
(152,661,o),
(152,692,cs,{
name = hr00;
})
);
}
);
width = 202;
}
);
unicode = 729;
},
{
glyphname = grave;
layers = (
{
layerId = master01;
shapes = (
{
closed = 1;
nodes = (
(106,805,o),
(100,806,o),
(95,806,cs),
(69,806,o),
(50,786,o),
(50,763,cs),
(50,755,o),
(53,749,o),
(63,740,cs),
(213,603,ls),
(217,599,o),
(221,598,o),
(227,598,cs),
(241,598,o),
(252,610,o),
(252,624,cs),
(252,629,o),
(250,634,o),
(248,637,cs),
(111,799,ls,{
name = hr00;
})
);
}
);
width = 302;
}
);
unicode = 96;
},
{
glyphname = acute;
layers = (
{
layerId = master01;
shapes = (
{
closed = 1;
nodes = (
(52,634,o),
(50,629,o),
(50,624,cs),
(50,610,o),
(61,598,o),
(75,598,cs),
(81,598,o),
(85,599,o),
(89,603,cs),
(239,740,ls),
(249,749,o),
(252,755,o),
(252,763,cs),
(252,786,o),
(233,806,o),
(207,806,cs),
(202,806,o),
(196,805,o),
(191,799,cs),
(54,637,ls,{
name = hr00;
})
);
}
);
width = 302;
}
);
unicode = 180;
},
{
glyphname = hungarumlaut;
layers = (
{
layerId = master01;
shapes = (
{
closed = 1;
nodes = (
(52,634,o),
(50,629,o),
(50,624,cs),
(50,610,o),
(61,598,o),
(75,598,cs),
(81,598,o),
(85,599,o),
(89,603,cs),
(239,740,ls),
(249,749,o),
(252,755,o),
(252,763,cs),
(252,786,o),
(233,806,o),
(207,806,cs),
(202,806,o),
(196,805,o),
(191,799,cs),
(54,637,ls,{
name = hr00;
})
);
},
{
closed = 1;
nodes = (
(252,634,o),
(250,629,o),
(250,624,cs),
(250,610,o),
(261,598,o),
(275,598,cs),
(281,598,o),
(285,599,o),
(289,603,cs),
(439,740,ls),
(449,749,o),
(452,755,o),
(452,763,cs),
(452,786,o),
(433,806,o),
(407,806,cs),
(402,806,o),
(396,805,o),
(391,799,cs),
(254,637,ls)
);
}
);
width = 502;
}
);
unicode = 733;
},
{
glyphname = circumflex;
layers = (
{
layerId = master01;
shapes = (
{
closed = 1;
nodes = (
(312,601,o),
(316,598,o),
(324,598,cs),
(337,598,o),
(354,612,o),
(354,628,cs),
(354,631,o),
(353,635,o),
(348,643,cs),
(263,783,ls),
(256,795,o),
(245,806,o),
(222,806,cs),
(193,806,o),
(179,784,o),
(171,775,cs),
(54,637,ls),
(52,634,o),
(50,629,o),
(50,624,cs),
(50,610,o),
(61,598,o),
(75,598,cs),
(81,598,o),
(85,599,o),
(89,603,cs),
(219,722,l),
(304,611,ls,{
name = hr00;
})
);
}
);
width = 404;
}
);
unicode = 710;
},
{
glyphname = caron;
layers = (
{
layerId = master01;
shapes = (
{
closed = 1;
nodes = (
(92,803,o),
(88,806,o),
(80,806,cs),
(67,806,o),
(50,792,o),
(50,776,cs),
(50,773,o),
(51,769,o),
(56,761,cs),
(141,621,ls),
(150,606,o),
(160,598,o),
(182,598,cs),
(211,598,o),
(225,620,o),
(233,629,cs),
(350,767,ls),
(352,770,o),
(354,775,o),
(354,780,cs),
(354,794,o),
(343,806,o),
(329,806,cs),
(323,806,o),
(319,805,o),
(315,801,cs),
(185,682,l),
(100,793,ls,{
name = hr00;
})
);
}
);
width = 404;
}
);
unicode = 711;
},
{
glyphname = breve;
layers = (
{
layerId = master01;
shapes = (
{
closed = 1;
nodes = (
(55,776,o),
(50,756,o),
(50,739,cs),
(50,687,o),
(89,598,o),
(154,598,cs),
(261,598,o),
(325,730,o),
(325,755,cs),
(325,767,o),
(317,776,o),
(305,776,cs),
(269,776,o),
(233,669,o),
(169,669,cs),
(103,669,o),
(115,776,o),
(72,776,cs,{
name = hr00;
})
);
}
);
width = 375;
}
);
unicode = 728;
},
{
glyphname = ring;
layers = (
{
layerId = master01;
shapes = (
{
closed = 1;
nodes = (
(53,628,o),
(83,583,o),
(146,583,cs),
(222,583,o),
(271,642,o),
(271,711,cs),
(271,762,o),
(240,809,o),
(177,809,cs),
(89,809,o),
(53,737,o),
(53,679,cs,{
name = hr00;
})
);
},
{
closed = 1;
nodes = (
(108,719,o),
(129,758,o),
(172,758,cs),
(203,758,o),
(217,736,o),
(217,704,cs),
(217,666,o),
(190,632,o),
(153,632,cs),
(121,632,o),
(108,655,o),
(108,685,cs)
);
}
);
width = 326;
}
);
unicode = 730;
},
{
glyphname = tilde;
layers = (
{
layerId = master01;
shapes = (
{
closed = 1;
nodes = (
(232,706,o),
(196,746,o),
(157,746,cs,{
name = hr01;
}),
(104,746,o),
(50,681,o),
(50,668,cs),
(50,651,o),
(58,637,o),
(79,637,cs,{
name = hr02;
}),
(90,637,o),
(116,677,o),
(155,677,cs,{
name = hr03;
}),
(195,677,o),
(231,637,o),
(270,637,cs,{
name = hr04;
}),
(323,637,o),
(377,702,o),
(377,715,cs),
(377,732,o),
(369,746,o),
(348,746,cs,{
name = hr05;
}),
(337,746,o),
(311,706,o),
(272,706,cs)
);
}
);
width = 427;
}
);
unicode = 732;
},
{
glyphname = macron;
layers = (
{
layerId = master01;
shapes = (
{
closed = 1;
nodes = (
(72,712,o),
(65,693,o),
(65,678,cs),
(65,663,o),
(72,651,o),
(88,651,cs),
(306,651,ls),
(336,651,o),
(343,670,o),
(343,685,cs),
(343,700,o),
(336,712,o),
(320,712,cs),
(102,712,ls,{
name = hr00;
})
);
}
);
width = 408;
}
);
unicode = 175;
},
{
glyphname = cedilla;
layers = (
{
layerId = master01;
shapes = (
{
closed = 1;
nodes = (
(172,-72,ls),
(169,-83,o),
(167,-93,o),
(167,-101,cs),
(167,-116,o),
(175,-124,o),
(199,-124,cs),
(242,-124,o),
(290,-137,o),
(290,-193,cs),
(290,-233,o),
(261,-265,o),
(215,-265,cs),
(171,-265,o),
(156,-243,o),
(145,-220,cs),
(138,-206,o),
(126,-203,o),
(118,-203,cs),
(100,-203,o),
(91,-219,o),
(91,-235,cs),
(91,-274,o),
(136,-320,o),
(211,-320,cs),
(285,-320,o),
(352,-280,o),
(352,-185,cs),
(352,-103,o),
(286,-71,o),
(220,-71,c),
(241,0,l),
(193,0,l,{
name = hr00;
})
);
}
);
width = 457;
}
);
unicode = 184;
},
{
glyphname = ogonek;
layers = (
{
layerId = master01;
shapes = (
{
closed = 1;
nodes = (
(167,-11,o),
(135,-63,o),
(135,-113,cs),
(135,-172,o),
(183,-229,o),
(269,-229,cs),
(327,-229,o),
(412,-189,o),
(412,-156,cs),
(412,-139,o),
(404,-131,o),
(390,-131,cs),
(369,-131,o),
(334,-172,o),
(273,-172,cs,{
name = hr01;
}),
(228,-172,o),
(203,-142,o),
(203,-107,cs),
(203,-62,o),
(237,-9,o),
(309,11,c),
(241,11,l)
);
}
);
width = 461;
}
);
unicode = 731;
},
{
glyphname = dieresis.case;
layers = (
{
layerId = master01;
shapes = (
{
closed = 1;
nodes = (
(152,1013,o),
(142,1029,o),
(107,1029,cs),
(61,1029,o),
(50,999,o),
(50,968,cs),
(50,947,o),
(60,930,o),
(95,930,cs),
(141,930,o),
(152,961,o),
(152,992,cs,{
name = hr00;
})
);
},
{
closed = 1;
nodes = (
(344,1013,o),
(334,1029,o),
(299,1029,cs),
(253,1029,o),
(242,999,o),
(242,968,cs),
(242,947,o),
(252,930,o),
(287,930,cs),
(333,930,o),
(344,961,o),
(344,992,cs)
);
}
);
width = 394;
}
);
},
{
glyphname = dotaccent.case;
layers = (
{
layerId = master01;
shapes = (
{
closed = 1;
nodes = (
(152,1013,o),
(142,1029,o),
(107,1029,cs),
(61,1029,o),
(50,999,o),
(50,968,cs),
(50,947,o),
(60,930,o),
(95,930,cs),
(141,930,o),
(152,961,o),
(152,992,cs,{
name = hr00;
})
);
}
);
width = 202;
}
);
},
{
glyphname = grave.case;
layers = (
{
layerId = master01;
shapes = (
{
closed = 1;
nodes = (
(79,1074,o),
(73,1074,o),
(70,1074,cs),
(47,1074,o),
(32,1049,o),
(32,1031,cs),
(32,1016,o),
(35,1010,o),
(52,1001,cs),
(240,902,ls),
(244,900,o),
(246,900,o),
(249,900,cs),
(264,900,o),
(274,913,o),
(274,926,cs),
(274,934,o),
(269,942,o),
(266,944,cs),
(83,1071,ls,{
name = hr00;
})
);
}
);
width = 302;
}
);
},
{
glyphname = acute.case;
layers = (
{
layerId = master01;
shapes = (
{
closed = 1;
nodes = (
(37,942,o),
(32,934,o),
(32,926,cs),
(32,913,o),
(42,900,o),
(57,900,cs),
(60,900,o),
(62,900,o),
(66,902,cs),
(254,1001,ls),
(271,1010,o),
(274,1016,o),
(274,1031,cs),
(274,1049,o),
(259,1074,o),
(234,1074,cs),
(231,1074,o),
(227,1073,o),
(223,1071,cs),
(40,944,ls,{
name = hr00;
})
);
}
);
width = 302;
}
);
},
{
glyphname = hungarumlaut.case;
layers = (
{
layerId = master01;
shapes = (
{
closed = 1;
nodes = (
(25,942,o),
(20,934,o),
(20,926,cs),
(20,913,o),
(30,900,o),
(45,900,cs),
(48,900,o),
(50,900,o),
(54,902,cs),
(242,1001,ls),
(259,1010,o),
(262,1016,o),
(262,1031,cs),
(262,1049,o),
(247,1074,o),
(222,1074,cs),
(219,1074,o),
(215,1073,o),
(211,1071,cs),
(28,944,ls,{
name = hr00;
})
);
},
{
closed = 1;
nodes = (
(245,942,o),
(240,934,o),
(240,926,cs),
(240,913,o),
(250,900,o),
(265,900,cs),
(268,900,o),
(270,900,o),
(274,902,cs),
(462,1001,ls),
(479,1010,o),
(482,1016,o),
(482,1031,cs),
(482,1049,o),
(467,1074,o),
(442,1074,cs),
(439,1074,o),
(435,1073,o),
(431,1071,cs),
(248,944,ls)
);
}
);
width = 502;
}
);
},
{
glyphname = circumflex.case;
layers = (
{
layerId = master01;
shapes = (
{
closed = 1;
nodes = (
(299,913,o),
(303,910,o),
(311,910,cs),
(324,910,o),
(340,924,o),
(340,940,cs),
(340,943,o),
(339,947,o),
(334,955,cs),
(263,1063,ls),
(253,1078,o),
(243,1086,o),
(224,1086,cs),
(204,1086,o),
(190,1073,o),
(171,1055,cs),
(64,950,ls),
(61,947,o),
(60,942,o),
(60,937,cs),
(60,923,o),
(70,911,o),
(84,911,cs,{
name = hr01;
}),
(90,911,o),
(94,912,o),
(99,916,cs),
(219,1002,l),
(290,923,ls)
);
}
);
width = 404;
}
);
},
{
glyphname = caron.case;
layers = (
{
layerId = master01;
shapes = (
{
closed = 1;
nodes = (
(110,1083,o),
(106,1086,o),
(98,1086,cs),
(85,1086,o),
(68,1072,o),
(68,1056,cs),
(68,1053,o),
(69,1049,o),
(74,1041,cs),
(145,933,ls),
(155,918,o),
(165,910,o),
(184,910,cs),
(204,910,o),
(218,923,o),
(237,941,cs),
(344,1046,ls),
(347,1049,o),
(348,1054,o),
(348,1059,cs),
(348,1073,o),
(337,1085,o),
(323,1085,cs,{
name = hr01;
}),
(319,1085,o),
(314,1084,o),
(309,1080,cs),
(189,994,l),
(118,1073,ls)
);
}
);
width = 404;
}
);
},
{
glyphname = breve.case;
layers = (
{
layerId = master01;
shapes = (
{
closed = 1;
nodes = (
(55,1071,o),
(50,1051,o),
(50,1034,cs),
(50,986,o),
(90,903,o),
(156,903,cs),
(262,903,o),
(325,1027,o),
(325,1050,cs),
(325,1062,o),
(317,1071,o),
(305,1071,cs),
(270,1071,o),
(234,974,o),
(171,974,cs),
(104,974,o),
(116,1071,o),
(72,1071,cs,{
name = hr00;
})
);
}
);
width = 375;
}
);
},
{
glyphname = ring.case;
layers = (
{
layerId = master01;
shapes = (
{
closed = 1;
nodes = (
(53,913,o),
(83,868,o),
(146,868,cs),
(222,868,o),
(271,927,o),
(271,996,cs),
(271,1047,o),
(240,1094,o),
(177,1094,cs),
(89,1094,o),
(53,1022,o),
(53,964,cs,{
name = hr00;
})
);
},
{
closed = 1;
nodes = (
(108,1004,o),
(129,1043,o),
(172,1043,cs),
(203,1043,o),
(217,1021,o),
(217,989,cs),
(217,951,o),
(190,917,o),
(153,917,cs),
(121,917,o),
(108,940,o),
(108,970,cs)
);
}
);
width = 326;
}
);
},
{
glyphname = tilde.case;
layers = (
{
layerId = master01;
shapes = (
{
closed = 1;
nodes = (
(232,991,o),
(196,1031,o),
(157,1031,cs,{
name = hr01;
}),
(104,1031,o),
(50,966,o),
(50,953,cs),
(50,936,o),
(58,922,o),
(79,922,cs,{
name = hr02;
}),
(90,922,o),
(116,962,o),
(155,962,cs,{
name = hr03;
}),
(195,962,o),
(231,922,o),
(270,922,cs,{
name = hr04;
}),
(323,922,o),
(377,987,o),
(377,1000,cs),
(377,1017,o),
(369,1031,o),
(348,1031,cs,{
name = hr05;
}),
(337,1031,o),
(311,991,o),
(272,991,cs)
);
}
);
width = 427;
}
);
},
{
glyphname = macron.case;
layers = (
{
layerId = master01;
shapes = (
{
closed = 1;
nodes = (
(72,1007,o),
(65,988,o),
(65,973,cs),
(65,958,o),
(72,946,o),
(88,946,cs),
(306,946,ls),
(336,946,o),
(343,965,o),
(343,980,cs),
(343,995,o),
(336,1007,o),
(320,1007,cs),
(102,1007,ls,{
name = hr00;
})
);
}
);
width = 408;
}
);
},
{
glyphname = caron.salt;
layers = (
{
layerId = master01;
shapes = (
{
closed = 1;
nodes = (
(92,689,o),
(116,693,o),
(123,713,cs),
(168,843,o),
(181,883,o),
(181,900,cs),
(181,922,o),
(161,930,o),
(143,930,cs),
(124,930,o),
(98,926,o),
(92,891,cs),
(65,733,o),
(61,711,o),
(61,707,cs),
(61,693,o),
(69,689,o),
(84,689,cs,{
name = hr00;
})
);
}
);
width = 231;
}
);
},
{
glyphname = eslash;
layers = (
{
layerId = master01;
shapes = (
{
closed = 1;
nodes = (
(38,355,o),
(34,346,o),
(34,338,cs),
(34,320,o),
(46,303,o),
(58,303,cs),
(63,303,o),
(67,305,o),
(79,311,cs),
(312,429,ls),
(322,434,o),
(326,443,o),
(326,451,cs),
(326,469,o),
(314,486,o),
(302,486,cs),
(297,486,o),
(293,484,o),
(281,478,cs),
(48,360,ls,{
name = hr00;
})
);
}
);
width = 359;
}
);
},
{
glyphname = ethbar;
layers = (
{
layerId = master01;
shapes = (
{
closed = 1;
nodes = (
(58,462,o),
(50,442,o),
(50,426,cs),
(50,411,o),
(58,398,o),
(71,398,cs),
(461,398,ls),
(480,398,o),
(491,415,o),
(491,431,cs),
(491,447,o),
(482,462,o),
(465,462,cs),
(79,462,ls,{
name = hr00;
})
);
}
);
width = 541;
}
);
},
{
glyphname = ringacute;
layers = (
{
layerId = master01;
shapes = (
{
closed = 1;
nodes = (
(336,846,ls),
(345,854,o),
(348,859,o),
(348,867,cs),
(348,887,o),
(331,905,o),
(307,905,cs),
(303,905,o),
(297,904,o),
(293,899,cs),
(195,782,l),
(232,751,l,{
name = hr00;
})
);
},
{
closed = 1;
nodes = (
(53,628,o),
(83,583,o),
(146,583,cs),
(222,583,o),
(271,642,o),
(271,711,cs),
(271,762,o),
(240,809,o),
(177,809,cs),
(89,809,o),
(53,737,o),
(53,679,cs)
);
},
{
closed = 1;
nodes = (
(108,719,o),
(129,758,o),
(172,758,cs),
(203,758,o),
(217,736,o),
(217,704,cs),
(217,666,o),
(190,632,o),
(153,632,cs),
(121,632,o),
(108,655,o),
(108,685,cs)
);
}
);
width = 326;
}
);
},
{
glyphname = "thin-slash";
layers = (
{
layerId = master01;
shapes = (
{
closed = 1;
nodes = (
(302,809,l),
(30,-110,l),
(79,-110,l),
(352,809,l,{
name = hr00;
})
);
}
);
width = 382;
}
);
},
{
glyphname = f02.alt;
layers = (
{
layerId = master01;
shapes = (
{
closed = 1;
nodes = (
(246,627,ls),
(255,706,o),
(281,814,o),
(387,814,cs),
(473,814,o),
(510,754,o),
(519,754,cs),
(538,754,o),
(559,785,o),
(559,801,cs),
(559,828,o),
(478,882,o),
(387,882,cs),
(241,882,o),
(192,766,o),
(176,629,cs),
(160,493,l),
(76,493,ls),
(61,493,o),
(45,473,o),
(45,456,cs),
(45,442,o),
(54,426,o),
(72,426,cs),
(152,426,l),
(115,104,ls),
(80,-202,o),
(61,-276,o),
(-37,-276,cs),
(-110,-276,o),
(-142,-234,o),
(-148,-234,cs),
(-166,-234,o),
(-188,-265,o),
(-188,-281,cs),
(-188,-302,o),
(-117,-344,o),
(-37,-344,cs),
(101,-344,o),
(147,-228,o),
(163,-91,cs),
(223,426,l),
(323,426,ls),
(339,426,o),
(353,447,o),
(353,463,cs),
(353,482,o),
(344,493,o),
(330,493,cs),
(231,493,l,{
name = hr00;
})
);
}
);
width = 330;
}
);
},
